<?xml version="1.0" standalone="no"?>
<!DOCTYPE svg PUBLIC "-//W3C//DTD SVG 20010904//EN"
 "http://www.w3.org/TR/2001/REC-SVG-20010904/DTD/svg10.dtd">
<svg version="1.0" xmlns="http://www.w3.org/2000/svg"
 width="290.000000pt" height="290.000000pt" viewBox="0 0 290.000000 290.000000"
 preserveAspectRatio="xMidYMid meet">
<metadata>
Created by potrace 1.10, written by Peter Selinger 2001-2011
</metadata>
<g transform="translate(0.000000,290.000000) scale(0.100000,-0.100000)"
fill="#000000" stroke="none">
<path d="M1342 2118 c-7 -7 -12 -25 -12 -40 0 -18 -5 -28 -15 -28 -19 0 -20
-16 -1 -23 11 -4 15 -29 15 -106 1 -95 0 -101 -19 -101 -11 0 -20 -7 -20 -15
0 -22 37 -18 50 4 5 11 10 60 10 110 0 54 4 91 11 93 7 2 5 13 -5 32 -16 32
-11 57 10 49 9 -3 14 2 14 16 0 23 -19 28 -38 9z"/>
<path d="M2302 2104 c-18 -14 -56 -60 -84 -103 -137 -203 -380 -454 -549 -567
-272 -180 -502 -210 -741 -95 -45 22 -109 59 -141 82 l-57 43 0 130 c0 72 -3
210 -5 306 l-5 175 30 -32 c33 -36 40 -40 40 -20 0 22 -59 97 -75 97 -16 0
-74 -85 -75 -108 0 -23 24 -7 40 26 8 17 17 32 20 32 6 0 2 -572 -4 -577 -5
-5 -48 30 -83 66 -19 20 -23 21 -23 7 0 -10 26 -45 58 -79 l57 -62 -3 -377 -2
-376 -40 5 c-26 4 -40 2 -40 -6 0 -6 18 -11 45 -11 l45 0 0 -50 c0 -27 5 -50
10 -50 6 0 10 23 10 50 l0 50 788 0 c433 0 797 3 810 6 34 10 26 -11 -13 -32
-19 -10 -31 -22 -27 -26 12 -12 134 50 130 65 -4 12 -104 65 -125 66 -25 2
-12 -19 25 -38 l37 -20 -72 -1 -73 0 0 576 c0 317 -3 593 -6 613 -5 32 0 42
41 91 92 110 128 199 57 144z m-112 -814 c0 -320 1 -586 3 -593 1 -7 -12 -13
-34 -15 l-36 -3 -2 498 c-1 274 -4 523 -7 553 -5 50 -3 59 26 98 17 23 36 42
41 42 5 0 9 -251 9 -580z m-91 -71 l-2 -540 -34 3 -34 3 0 430 c0 237 -3 459
-8 495 l-9 65 41 43 c23 23 43 42 44 42 2 0 3 -243 2 -541z m-90 -102 l1 -438
-36 3 -37 3 -2 70 c-1 39 -4 240 -5 448 l-3 378 34 35 34 35 7 -48 c3 -26 7
-245 7 -486z m-100 -7 l3 -431 -33 3 -34 3 -5 404 -5 404 30 31 c17 17 32 28
35 24 3 -3 7 -201 9 -438z m-89 -30 l0 -400 -34 0 -35 0 -3 368 -3 367 30 32
c17 18 33 32 38 32 4 1 7 -179 7 -399z m-1050 307 c24 -21 25 -26 27 -167 1
-80 5 -234 9 -342 l6 -198 -41 0 -41 0 0 365 c0 201 3 365 8 365 4 0 18 -11
32 -23z m956 -351 l-1 -351 -31 -3 -31 -3 -7 318 c-3 175 -9 327 -12 338 -4
16 4 27 33 46 21 14 41 21 44 16 4 -5 6 -167 5 -361z m-875 295 l32 -20 5
-315 4 -316 -37 0 c-31 0 -36 3 -30 19 9 30 8 135 -4 391 -13 272 -12 260 -6
260 2 0 19 -9 36 -19z m774 -108 c5 -65 9 -212 9 -328 l1 -210 -30 -3 -30 -3
-1 108 c-1 59 -5 200 -10 312 l-9 204 24 18 c13 11 27 19 31 19 4 0 11 -53 15
-117z m-639 -79 c1 -66 3 -195 5 -289 l4 -170 -42 -3 -42 -3 -3 303 c-2 167
-2 306 0 310 2 5 20 -1 40 -11 l37 -19 1 -118z m559 -161 l8 -303 -40 0 -40 0
-5 278 c-3 152 -7 283 -9 291 -4 16 61 54 73 43 3 -4 9 -143 13 -309z m-511
270 c4 -5 13 -8 19 -8 15 0 28 -249 25 -435 l-3 -125 -30 -3 -30 -3 -2 228
c-2 125 -6 256 -9 291 -4 49 -3 62 9 62 7 0 17 -3 21 -7z m411 -185 c3 -106 5
-236 3 -288 l-3 -95 -30 0 c-26 0 -30 3 -28 25 1 14 -2 137 -8 275 -9 232 -8
251 8 262 9 7 24 13 34 13 15 0 18 -21 24 -192z m-91 60 c3 -62 7 -187 8 -278
l2 -165 -38 0 -38 0 -3 80 c-2 44 -4 165 -6 270 l-4 190 30 6 c17 4 33 7 36 8
4 0 9 -50 13 -111z m-190 20 c3 -46 8 -170 12 -275 l7 -193 -42 0 -41 0 0 153
c0 85 -3 209 -7 275 l-6 122 35 0 36 0 6 -82z m94 -197 l5 -272 -34 3 c-19 2
-33 8 -32 14 8 42 1 258 -13 441 -3 40 -3 76 -1 80 3 4 20 8 37 7 l33 -1 5
-272z"/>
<path d="M1433 2014 c-16 -35 -25 -74 -25 -104 0 -55 43 -160 65 -160 11 0 9
11 -9 47 -18 35 -24 63 -24 113 0 50 6 78 24 113 18 36 20 47 9 47 -8 0 -26
-25 -40 -56z"/>
<path d="M1680 2066 c0 -3 10 -24 22 -47 29 -57 29 -146 0 -213 -25 -56 -25
-56 -12 -56 5 0 22 24 37 53 37 71 37 153 1 217 -22 38 -48 63 -48 46z"/>
<path d="M1187 1993 c-56 -3 -77 -7 -74 -16 2 -8 31 -13 80 -14 70 -1 77 1 77
18 0 10 -1 18 -2 17 -2 -1 -38 -4 -81 -5z"/>
<path d="M1044 1977 c-5 -13 -10 -52 -13 -89 -2 -38 -26 -13 -35 36 -7 37 -19
56 -37 56 -10 0 -19 -2 -19 -5 0 -3 14 -36 31 -75 33 -74 33 -106 -1 -97 -24
6 -25 -2 -6 -29 25 -33 48 -5 87 104 20 56 34 104 31 107 -10 10 -33 5 -38 -8z"/>
<path d="M1531 1950 l32 -40 -32 -40 c-29 -36 -30 -40 -12 -40 11 0 28 11 37
25 21 32 35 28 48 -13 11 -30 13 -32 31 -18 20 14 19 15 -10 46 -32 33 -32 28
13 98 13 20 13 22 -6 22 -13 0 -24 -10 -31 -30 -5 -16 -14 -30 -19 -30 -5 0
-15 14 -22 30 -9 22 -19 30 -37 30 l-24 0 32 -40z"/>
<path d="M1110 1905 c0 -12 16 -15 80 -15 64 0 80 3 80 15 0 12 -16 15 -80 15
-64 0 -80 -3 -80 -15z"/>
</g>
</svg>
