<?xml version="1.0" standalone="no"?>
<!DOCTYPE svg PUBLIC "-//W3C//DTD SVG 20010904//EN"
 "http://www.w3.org/TR/2001/REC-SVG-20010904/DTD/svg10.dtd">
<svg version="1.0" xmlns="http://www.w3.org/2000/svg"
 width="290.000000pt" height="290.000000pt" viewBox="0 0 290.000000 290.000000"
 preserveAspectRatio="xMidYMid meet">
<metadata>
Created by potrace 1.10, written by Peter Selinger 2001-2011
</metadata>
<g transform="translate(0.000000,290.000000) scale(0.100000,-0.100000)"
fill="#000000" stroke="none">
<path d="M1095 2213 c-99 -9 -340 -54 -360 -67 -11 -8 -32 -35 -46 -60 -15
-29 -31 -46 -42 -46 -10 0 -50 -7 -88 -16 l-71 -16 6 -241 c5 -211 15 -418 31
-672 2 -38 7 -132 11 -207 4 -94 10 -135 18 -132 6 2 166 17 355 34 189 17
354 33 367 36 13 3 24 2 24 -3 0 -19 78 -46 147 -51 64 -4 78 -2 137 26 35 17
66 28 69 26 3 -3 665 -31 788 -34 6 0 2 1231 -5 1237 -2 2 -36 4 -75 5 l-71 0
-25 43 c-14 24 -33 51 -43 61 -9 10 -17 25 -17 33 0 27 -97 43 -290 47 -229 5
-308 -13 -394 -91 l-41 -37 -28 30 c-72 77 -197 110 -357 95z m1065 -48 c6 -4
10 -140 10 -358 0 -358 1 -377 25 -552 8 -55 12 -101 11 -103 -2 -1 -43 6 -92
17 -195 43 -369 50 -478 20 -21 -6 -57 -28 -81 -50 -23 -21 -44 -39 -46 -39
-2 0 -6 215 -8 478 -3 466 -3 478 17 502 35 44 134 83 237 94 56 6 393 -1 405
-9z m-837 -25 c27 -13 64 -39 83 -58 l34 -33 0 -435 c0 -427 0 -436 21 -466
26 -35 17 -49 -14 -22 -39 35 -75 54 -134 69 -65 17 -208 19 -268 4 -22 -5
-47 -11 -55 -13 -8 -3 -57 -18 -108 -36 -52 -17 -95 -30 -97 -28 -2 2 -6 221
-10 488 -3 267 -8 497 -11 513 l-6 27 69 1 c87 1 176 9 183 15 3 3 64 4 135 2
114 -3 136 -6 178 -28z m-592 -266 c1 -126 8 -349 16 -496 l15 -267 -26 -34
c-14 -19 -31 -48 -37 -65 -6 -18 -15 -32 -20 -32 -5 0 -9 93 -9 213 0 116 -5
330 -10 474 -9 243 -8 264 9 305 10 24 26 65 36 91 9 27 19 46 21 44 3 -2 5
-107 5 -233z m1521 145 l35 -66 6 -299 c4 -165 10 -383 13 -486 7 -189 1 -225
-25 -153 -7 19 -20 42 -29 52 -15 15 -18 58 -24 372 -4 196 -12 417 -16 491
-7 117 -6 169 3 158 1 -2 18 -33 37 -69z m-1614 -35 c-20 -33 -21 -48 -19
-222 2 -103 4 -221 6 -262 2 -41 6 -158 10 -260 14 -399 11 -365 37 -363 475
33 644 48 650 56 4 6 13 4 23 -6 24 -24 45 -34 90 -41 43 -7 130 8 152 26 14
11 261 11 575 0 l177 -7 -5 520 c-5 421 -8 524 -20 547 -8 15 -14 29 -14 33 0
3 26 5 58 5 l57 0 0 -598 c0 -591 0 -597 -20 -594 -11 1 -192 14 -402 28
l-382 27 -73 -26 -72 -26 -83 34 c-56 23 -94 32 -116 29 -17 -2 -113 -16 -212
-30 -99 -14 -191 -27 -205 -29 -100 -15 -253 -35 -264 -35 -15 0 -19 64 -37
615 -5 176 -16 379 -24 450 -7 72 -10 133 -7 137 8 7 87 25 119 27 l22 1 -21
-36z m1487 -848 l80 -11 11 -67 c6 -37 18 -78 27 -92 9 -14 13 -27 9 -29 -4
-3 -34 -1 -67 3 -33 5 -168 11 -300 15 -309 9 -285 6 -300 41 -7 17 -26 41
-43 55 l-30 26 53 32 c29 18 75 36 102 41 59 11 348 2 458 -14z m-777 -18 l93
-31 -41 -39 c-22 -21 -40 -43 -40 -48 0 -5 -26 -11 -57 -15 -66 -7 -285 -35
-323 -41 -47 -8 -75 -11 -140 -19 -36 -3 -83 -10 -104 -15 -55 -12 -61 -4 -31
36 15 20 35 58 44 85 10 28 22 54 27 58 9 8 113 33 209 50 28 5 100 9 160 10
99 1 119 -2 203 -31z m190 -165 c-29 -16 -89 -17 -122 -2 l-25 12 41 33 40 34
44 -32 c44 -32 45 -32 22 -45z"/>
<path d="M1735 2084 c-70 -10 -165 -37 -175 -49 -18 -21 1 -23 65 -7 58 14
242 21 380 13 88 -5 107 -3 103 11 -3 7 -20 16 -39 20 -42 9 -293 18 -334 12z"/>
<path d="M1722 1950 c-77 -11 -172 -38 -172 -49 0 -17 13 -18 73 -3 78 18 277
27 348 14 101 -17 192 10 98 30 -59 12 -281 17 -347 8z"/>
<path d="M1718 1820 c-77 -9 -168 -37 -168 -51 0 -13 35 -11 115 6 77 16 188
18 309 6 80 -9 125 -4 126 14 1 6 -14 13 -32 17 -57 12 -281 17 -350 8z"/>
<path d="M1745 1694 c-123 -17 -195 -38 -195 -56 0 -12 41 -10 117 8 56 13
101 15 257 9 154 -6 188 -5 184 6 -2 7 -18 16 -34 21 -34 9 -285 18 -329 12z"/>
<path d="M1660 1559 c-54 -15 -110 -41 -110 -52 0 -10 22 -8 140 18 60 14 104
16 225 10 83 -3 157 -7 165 -8 8 -1 16 3 18 8 8 29 -348 48 -438 24z"/>
<path d="M1667 1435 c-60 -15 -117 -43 -117 -57 0 -13 23 -9 96 13 63 20 85
21 249 17 99 -3 185 -7 190 -9 6 -2 12 1 15 6 17 34 -325 57 -433 30z"/>
<path d="M1700 1314 c-50 -10 -121 -36 -135 -51 -29 -29 -4 -31 68 -7 63 22
89 25 214 25 130 0 174 -3 241 -17 14 -3 22 0 22 9 0 23 -96 39 -245 42 -77 2
-151 1 -165 -1z"/>
<path d="M925 2080 c-66 -8 -95 -18 -95 -31 0 -4 96 -8 213 -7 171 2 224 -1
272 -15 75 -21 98 -6 34 22 -82 36 -270 50 -424 31z"/>
<path d="M925 1949 c-66 -7 -95 -16 -95 -30 0 -5 96 -7 213 -6 172 1 223 -1
272 -15 59 -16 89 -12 62 10 -43 36 -295 59 -452 41z"/>
<path d="M918 1820 c-71 -9 -88 -15 -88 -32 0 -7 58 -8 188 -4 163 6 198 4
275 -12 84 -19 111 -16 84 6 -43 36 -313 61 -459 42z"/>
<path d="M914 1691 c-64 -8 -84 -16 -84 -33 0 -7 60 -8 188 -3 166 6 197 5
275 -13 83 -19 112 -17 84 6 -43 36 -317 61 -463 43z"/>
<path d="M886 1557 c-61 -15 -78 -42 -20 -31 22 4 116 8 209 8 144 0 180 -3
238 -21 94 -29 102 -6 11 34 -50 22 -361 29 -438 10z"/>
<path d="M934 1440 c-67 -12 -104 -27 -104 -41 0 -7 7 -8 18 -4 9 4 100 10
202 12 176 4 189 3 258 -20 40 -13 75 -21 77 -17 9 15 -25 39 -78 56 -61 19
-293 28 -373 14z"/>
<path d="M955 1314 c-11 -3 -44 -10 -72 -15 -31 -6 -53 -16 -53 -23 0 -10 13
-11 58 -4 31 4 122 8 202 9 128 0 154 -3 218 -24 40 -13 75 -21 77 -17 10 17
-62 60 -78 48 -2 -2 -12 4 -21 12 -14 10 -54 15 -164 16 -81 2 -156 1 -167 -2z"/>
</g>
</svg>
