<?xml version="1.0" standalone="no"?>
<!DOCTYPE svg PUBLIC "-//W3C//DTD SVG 20010904//EN"
 "http://www.w3.org/TR/2001/REC-SVG-20010904/DTD/svg10.dtd">
<svg version="1.0" xmlns="http://www.w3.org/2000/svg"
 width="290.000000pt" height="290.000000pt" viewBox="0 0 290.000000 290.000000"
 preserveAspectRatio="xMidYMid meet">
<metadata>
Created by potrace 1.10, written by Peter Selinger 2001-2011
</metadata>
<g transform="translate(0.000000,290.000000) scale(0.100000,-0.100000)"
fill="#000000" stroke="none">
<path d="M965 2583 c-27 -2 -61 -6 -74 -9 l-24 -5 6 -187 c4 -103 8 -560 9
-1017 1 -882 5 -1065 18 -1065 5 0 10 8 11 18 1 9 3 402 4 872 1 782 -2 1028
-19 1271 l-7 87 118 7 c65 3 129 7 143 8 16 1 25 -4 28 -15 3 -14 -3 -18 -22
-18 -14 0 -26 -4 -26 -10 0 -5 11 -10 25 -10 17 0 25 -5 25 -18 0 -15 -8 -18
-52 -17 -34 0 -53 -4 -56 -13 -3 -10 8 -13 49 -11 44 3 54 0 57 -14 3 -12 -3
-17 -22 -17 -14 0 -26 -4 -26 -10 0 -5 11 -10 25 -10 18 0 25 -5 25 -19 0 -16
-7 -19 -51 -17 -34 1 -53 -3 -56 -11 -3 -10 11 -13 51 -13 43 0 56 -3 56 -15
0 -9 -9 -15 -25 -15 -31 0 -33 -17 -3 -22 13 -2 24 -11 26 -21 3 -15 -2 -18
-30 -17 -56 3 -78 0 -78 -10 0 -5 25 -10 55 -10 42 0 55 -3 55 -15 0 -9 -9
-15 -25 -15 -14 0 -25 -4 -25 -9 0 -5 11 -12 25 -15 14 -4 25 -13 25 -21 0
-11 -13 -15 -55 -15 -30 0 -55 -4 -55 -10 0 -5 25 -10 55 -10 42 0 55 -3 55
-15 0 -9 -10 -15 -26 -15 -31 0 -28 -23 4 -28 12 -2 22 -10 22 -18 0 -10 -14
-14 -55 -14 -73 0 -71 -18 3 -22 42 -2 57 -7 57 -18 0 -8 -9 -15 -22 -15 -33
0 -33 -19 0 -23 15 -2 27 -9 27 -18 0 -10 -14 -14 -55 -14 -70 0 -72 -18 -2
-22 38 -2 52 -7 52 -18 0 -8 -9 -15 -22 -15 -30 0 -30 -19 -1 -25 13 -3 23
-12 23 -20 0 -12 -12 -14 -57 -12 -37 3 -58 0 -58 -7 0 -6 15 -12 33 -12 17
-1 43 -2 57 -3 35 -1 33 -30 -3 -34 -33 -4 -26 -22 9 -22 19 0 25 -5 22 -17
-3 -15 -12 -17 -56 -15 -30 2 -52 0 -52 -6 0 -11 67 -25 90 -20 8 2 16 -5 18
-14 3 -14 -3 -18 -28 -18 -18 0 -29 -4 -25 -10 3 -5 17 -10 31 -10 19 0 25 -5
22 -17 -3 -15 -12 -17 -56 -15 -42 3 -52 1 -52 -12 0 -13 11 -16 55 -16 42 0
55 -3 55 -15 0 -10 -10 -15 -31 -15 -17 0 -28 -4 -24 -10 3 -5 17 -10 31 -10
17 0 24 -5 24 -20 0 -19 -4 -20 -55 -14 -47 6 -55 4 -55 -10 0 -13 11 -16 55
-16 42 0 55 -3 55 -15 0 -10 -10 -15 -31 -15 -17 0 -28 -4 -24 -10 3 -5 17
-10 31 -10 17 0 24 -6 24 -19 0 -18 -5 -19 -55 -14 -47 5 -55 3 -55 -11 0 -13
11 -16 55 -16 42 0 55 -3 55 -15 0 -9 -9 -15 -24 -15 -35 0 -42 -18 -9 -22 17
-2 29 -10 31 -21 3 -17 -1 -18 -52 -12 -48 6 -56 5 -56 -9 0 -13 11 -16 55
-16 42 0 55 -3 55 -15 0 -9 -9 -15 -24 -15 -35 0 -42 -18 -9 -22 17 -2 29 -10
31 -21 3 -16 -2 -18 -49 -15 -35 2 -53 -1 -56 -9 -3 -10 11 -13 51 -13 50 0
56 -2 56 -21 0 -17 -4 -20 -24 -15 -14 3 -27 2 -30 -3 -4 -5 7 -12 24 -16 16
-4 30 -13 30 -21 0 -10 -14 -14 -55 -14 -30 0 -55 -4 -55 -10 0 -5 25 -10 55
-10 49 0 55 -2 55 -21 0 -16 -5 -20 -19 -16 -10 2 -25 1 -32 -4 -10 -6 -5 -10
19 -15 55 -11 40 -34 -24 -34 -40 0 -54 -3 -51 -12 2 -9 22 -12 55 -11 46 2
52 -1 52 -19 0 -16 -5 -19 -25 -16 -17 4 -25 1 -25 -8 0 -8 11 -14 25 -14 16
0 25 -6 25 -15 0 -12 -13 -15 -56 -15 -40 0 -54 -3 -51 -12 2 -9 22 -13 55
-12 45 1 52 -1 52 -19 0 -15 -5 -18 -25 -13 -18 5 -25 2 -25 -9 0 -9 9 -15 25
-15 16 0 25 -6 25 -15 0 -12 -13 -15 -56 -15 -40 0 -54 -3 -51 -12 3 -9 22
-13 56 -12 44 2 51 -1 51 -18 0 -14 -6 -18 -22 -16 -11 2 -23 -3 -25 -9 -3 -8
5 -13 21 -13 18 0 26 -5 26 -18 0 -15 -8 -18 -52 -17 -30 0 -53 -5 -55 -12 -3
-8 13 -11 51 -9 48 2 56 0 56 -16 0 -13 -8 -18 -25 -18 -14 0 -25 -4 -25 -10
0 -5 11 -10 25 -10 18 0 25 -5 25 -20 0 -18 -4 -20 -40 -14 -21 4 -47 3 -57
-1 -17 -7 -17 -8 2 -15 11 -5 37 -9 58 -9 43 -1 55 -31 12 -31 -14 0 -25 -4
-25 -10 0 -5 11 -10 25 -10 19 0 25 -5 25 -21 0 -19 -5 -20 -47 -17 -27 1 -50
-1 -53 -7 -3 -6 17 -11 48 -13 36 -2 52 -7 49 -15 -3 -9 -39 -11 -135 -8 -117
3 -132 2 -132 -13 0 -14 17 -16 135 -16 113 0 135 2 135 15 0 8 5 15 12 15 8
0 10 273 5 1126 -4 619 -9 1130 -12 1135 -6 8 -117 10 -230 2z"/>
<path d="M1423 2049 c-22 -11 -46 -31 -54 -46 -29 -55 -6 -1170 25 -1160 30
10 32 74 22 702 -7 375 -6 433 7 450 15 19 30 20 294 25 153 3 347 3 431 0
137 -4 155 -7 168 -24 12 -17 14 -116 14 -606 l0 -587 -22 -20 c-22 -20 -38
-21 -441 -27 l-418 -6 -24 24 c-14 14 -25 32 -25 41 0 8 -7 15 -16 15 -23 0
-10 -48 22 -80 21 -22 36 -26 117 -32 50 -3 244 -7 430 -7 379 -1 381 -1 417
68 19 38 19 54 14 618 -5 519 -8 581 -23 608 -30 53 -56 59 -220 48 -80 -5
-151 -5 -157 -1 -7 5 -126 11 -266 13 -239 4 -257 3 -295 -16z"/>
<path d="M2049 1956 c-2 -2 -107 -7 -234 -11 -126 -4 -231 -8 -233 -10 -2 -1
-18 1 -37 5 -62 14 -69 0 -76 -152 -4 -114 -3 -137 12 -158 l16 -25 373 -3
c338 -2 374 -1 391 14 17 15 19 33 19 164 0 184 3 180 -132 180 -52 0 -97 -2
-99 -4z m-472 -52 c86 -23 461 -18 638 9 6 1 10 -47 10 -128 l0 -130 -356 -3
-357 -2 -4 127 c-5 118 -3 143 7 143 2 0 30 -7 62 -16z"/>
<path d="M1542 1506 c-39 -15 -52 -31 -52 -68 0 -35 33 -58 85 -58 58 0 85 22
85 70 0 65 -40 84 -118 56z m67 -48 c12 -32 6 -38 -40 -38 -41 0 -42 2 -33 38
5 16 14 22 35 22 22 0 32 -6 38 -22z"/>
<path d="M1730 1505 c-32 -12 -35 -16 -38 -59 -3 -42 -1 -47 23 -56 40 -15
101 -12 119 6 24 23 21 100 -3 114 -25 13 -56 11 -101 -5z m83 -54 c7 -35 4
-37 -42 -33 -37 4 -41 7 -41 32 0 27 3 29 39 28 34 0 40 -4 44 -27z"/>
<path d="M1923 1507 c-26 -9 -34 -18 -39 -43 -9 -49 3 -72 40 -79 34 -7 87 -2
105 10 15 9 14 98 -1 113 -14 14 -60 13 -105 -1z m87 -57 c0 -29 -2 -30 -45
-30 -43 0 -45 1 -45 30 0 29 2 30 45 30 43 0 45 -1 45 -30z"/>
<path d="M2120 1505 c-29 -11 -36 -19 -41 -50 -9 -53 15 -75 80 -75 66 0 85
19 78 78 -3 24 -11 48 -18 53 -19 12 -56 9 -99 -6z m85 -56 c5 -22 2 -27 -17
-33 -13 -3 -35 -6 -50 -6 -25 0 -28 4 -28 34 0 32 2 35 30 34 17 -1 33 2 37 6
9 9 21 -5 28 -35z"/>
<path d="M1550 1328 c-49 -14 -60 -26 -60 -64 0 -43 30 -64 91 -64 56 0 79 21
79 73 0 61 -32 77 -110 55z m64 -50 c7 -30 -5 -40 -45 -36 -29 3 -34 7 -34 31
-1 25 2 27 36 27 30 0 38 -4 43 -22z"/>
<path d="M1730 1325 c-32 -11 -35 -16 -38 -56 -4 -54 13 -69 79 -69 61 0 79
18 79 75 0 64 -38 80 -120 50z m83 -51 c5 -29 -7 -37 -50 -32 -22 2 -29 9 -31
31 -3 25 -1 27 36 27 35 0 40 -3 45 -26z"/>
<path d="M1930 1327 c-42 -13 -50 -23 -50 -63 0 -42 27 -64 79 -64 66 0 81 13
81 68 0 27 -5 53 -12 60 -14 14 -50 14 -98 -1z m80 -57 c0 -29 -2 -30 -45 -30
-43 0 -45 1 -45 30 0 29 2 30 45 30 43 0 45 -1 45 -30z"/>
<path d="M2120 1326 c-32 -12 -35 -17 -38 -56 -4 -55 13 -70 78 -70 57 0 80
21 80 73 0 63 -41 81 -120 53z m85 -47 c9 -38 -4 -49 -57 -49 -37 0 -38 1 -38
34 0 33 2 35 38 39 20 2 40 4 44 5 3 1 9 -12 13 -29z"/>
<path d="M1545 1153 c-34 -8 -55 -35 -55 -68 0 -45 16 -55 87 -55 51 0 64 3
73 19 13 25 13 67 0 92 -11 19 -55 24 -105 12z m71 -59 c3 -17 -3 -23 -27 -28
-56 -11 -61 -9 -55 27 2 17 5 32 5 33 1 0 17 -2 38 -5 27 -4 37 -11 39 -27z"/>
<path d="M1745 1150 c-4 -6 -11 -8 -16 -4 -20 12 -39 -19 -39 -62 0 -33 4 -44
19 -49 34 -11 111 -8 126 5 18 15 20 91 3 108 -15 15 -84 16 -93 2z m67 -60
c3 -22 -1 -25 -27 -26 -43 -2 -55 5 -55 31 0 19 6 24 33 27 39 4 44 0 49 -32z"/>
<path d="M1920 1151 c-30 -8 -51 -71 -33 -99 12 -21 96 -34 129 -22 20 8 24
16 24 54 0 68 -6 76 -54 75 -22 -1 -52 -4 -66 -8z m90 -62 c0 -28 -2 -29 -45
-29 -43 0 -45 1 -45 28 0 37 2 38 49 34 38 -4 41 -7 41 -33z"/>
<path d="M2130 1151 c-8 -6 -17 -8 -21 -5 -15 9 -30 -27 -27 -68 l3 -43 50 -7
c69 -10 99 6 103 54 5 56 -11 78 -56 78 -20 0 -44 -4 -52 -9z m75 -52 c4 -17
5 -32 3 -34 -1 -2 -23 -5 -48 -6 -44 -4 -45 -3 -48 28 -3 28 0 32 25 36 59 9
61 8 68 -24z"/>
<path d="M1558 975 c-3 -3 -16 -8 -28 -10 -28 -5 -40 -21 -40 -56 0 -45 20
-61 84 -62 65 -2 86 14 86 66 0 48 -16 67 -59 67 -21 0 -40 -2 -43 -5z m27
-35 c27 0 40 -33 20 -50 -8 -6 -26 -10 -42 -8 -24 3 -28 7 -28 36 -1 23 3 31
13 27 7 -3 24 -5 37 -5z"/>
<path d="M1723 964 c-30 -13 -33 -18 -33 -58 0 -48 2 -50 74 -61 58 -8 86 14
86 68 0 24 -5 48 -12 55 -16 16 -75 14 -115 -4z m88 -48 c9 -31 0 -37 -46 -33
-25 2 -30 7 -33 32 -3 29 -1 30 35 29 32 -1 38 -5 44 -28z"/>
<path d="M1920 967 c-30 -10 -35 -17 -38 -50 -2 -21 1 -44 7 -51 15 -18 95
-28 126 -16 22 8 25 15 25 58 0 26 -5 53 -12 60 -15 15 -62 15 -108 -1z m61
-27 c26 0 29 -3 29 -31 0 -29 -1 -30 -42 -27 -41 3 -43 5 -46 37 -3 28 -1 33
13 27 9 -3 30 -6 46 -6z"/>
<path d="M2138 974 c-5 -5 -28 -11 -50 -13 -5 -1 -8 -23 -8 -50 0 -28 3 -52 8
-54 4 -3 30 -8 59 -12 44 -6 54 -4 72 14 23 23 28 70 11 102 -8 14 -21 19 -49
19 -21 0 -40 -3 -43 -6z m67 -51 c8 -33 -1 -41 -50 -45 -35 -3 -40 0 -43 20
-6 38 3 47 46 48 35 2 41 -1 47 -23z"/>
</g>
</svg>
