<?xml version="1.0" standalone="no"?>
<!DOCTYPE svg PUBLIC "-//W3C//DTD SVG 20010904//EN"
 "http://www.w3.org/TR/2001/REC-SVG-20010904/DTD/svg10.dtd">
<svg version="1.0" xmlns="http://www.w3.org/2000/svg"
 width="290.000000pt" height="290.000000pt" viewBox="0 0 290.000000 290.000000"
 preserveAspectRatio="xMidYMid meet">
<metadata>
Created by potrace 1.10, written by Peter Selinger 2001-2011
</metadata>
<g transform="translate(0.000000,290.000000) scale(0.050000,-0.050000)"
fill="#000000" stroke="none">
<path d="M1742 5109 c-147 -124 -177 -462 -93 -1059 26 -187 46 -341 44 -343
-1 -2 -196 -9 -432 -15 -236 -7 -433 -17 -438 -22 -13 -13 16 -14 479 -10
l393 3 13 -53 c18 -69 11 -77 -145 -170 l-135 -80 -329 0 c-220 -1 -319 -7
-299 -20 17 -11 150 -20 297 -20 l267 0 -102 -80 c-55 -44 -121 -107 -145
-140 -42 -56 -54 -60 -186 -64 l-141 -4 127 -7 127 -7 -15 -54 c-9 -30 -17
-99 -19 -154 l-3 -100 -108 -12 c-64 -7 -83 -13 -46 -15 134 -7 184 -26 207
-83 12 -30 54 -85 91 -121 77 -74 87 -103 34 -98 -19 2 -120 2 -225 -1 -263
-6 -116 -37 190 -40 121 -1 274 -14 340 -30 66 -16 175 -30 242 -30 l122 0 13
-285 c22 -459 -26 -783 -142 -958 -187 -284 -705 -10 -705 373 0 355 412 460
569 145 122 -245 24 -390 -179 -264 -127 78 -183 64 -117 -29 257 -368 637
-52 448 374 -223 503 -945 288 -872 -261 20 -154 202 -395 298 -395 15 0 40
-15 56 -33 86 -104 356 -159 476 -98 231 120 321 425 321 1094 0 340 4 394 32
405 17 7 327 12 689 12 l657 0 53 -52 c66 -66 233 -62 329 9 57 42 74 43 679
43 401 0 621 7 621 20 0 13 -214 20 -602 20 l-603 0 14 45 c8 25 19 88 25 141
l11 96 559 -4 c307 -1 564 3 570 10 36 35 -65 41 -576 35 l-558 -7 0 147 0
147 545 -1 c300 -1 563 5 585 13 53 20 38 21 -600 25 l-520 3 -17 126 c-9 70
-12 132 -5 138 31 32 334 20 358 -14 75 -105 354 -94 423 18 8 13 92 24 207
26 l194 4 -187 7 c-167 6 -185 10 -171 41 8 19 20 84 26 144 11 102 15 110 61
103 26 -4 97 -1 158 7 147 18 96 49 -82 50 l-135 0 -1 235 c-1 129 -8 305 -16
392 -17 185 -7 199 68 91 60 -85 121 -138 163 -138 13 0 4 20 -21 45 -25 25
-66 83 -92 129 -125 222 -159 152 -166 -331 l-5 -413 -754 -5 -753 -5 -13 115
c-7 63 -15 124 -16 135 -9 53 38 24 104 -63 47 -62 91 -99 123 -103 l49 -6
-42 36 c-24 20 -67 79 -97 131 -106 185 -167 160 -175 -71 l-6 -164 -475 -5
c-261 -3 -475 1 -475 10 0 9 14 36 31 60 88 127 127 454 64 550 -18 27 -27 70
-21 100 25 128 -194 609 -313 690 -85 57 -104 56 -179 -6z m144 -145 c18 -20
84 -144 145 -275 62 -131 127 -254 143 -273 49 -55 26 -360 -36 -473 -157
-286 -254 -311 -290 -73 -13 88 -39 259 -58 380 -67 433 -13 834 96 714z
m1224 -1444 l0 -130 -590 -10 c-382 -6 -595 -3 -605 10 -25 36 8 97 103 184
l92 85 500 -5 500 -4 0 -130z m1592 53 c11 -71 9 -75 -30 -63 -135 43 -270 15
-360 -74 -111 -112 -215 -91 -310 64 -89 145 -155 133 -166 -30 l-6 -100 -310
7 c-170 4 -315 10 -321 14 -10 6 -10 243 -1 264 1 3 337 3 747 0 l744 -5 13
-77z m-709 -183 c-26 -84 -113 -15 -112 90 l0 70 59 -70 c32 -38 56 -79 53
-90z m-2233 -145 c0 -41 6 -94 12 -117 19 -70 -144 -97 -431 -71 -41 4 -8 35
178 161 185 127 241 133 241 27z m1356 -60 l-6 -135 -487 -4 c-617 -5 -667 7
-684 170 l-10 104 596 0 597 0 -6 -135z m724 7 c0 -158 13 -152 -342 -152
l-279 0 -19 51 c-23 59 -27 196 -7 216 8 7 156 13 330 13 l317 0 0 -128z
m-2260 -202 c0 -16 -9 -30 -20 -30 -33 0 -100 -125 -100 -186 l0 -56 -135 6
-135 6 -6 64 c-15 148 41 204 213 211 84 4 160 9 168 11 8 2 15 -9 15 -26z
m2250 -122 l0 -138 -415 -5 c-402 -6 -469 4 -366 51 27 12 72 67 100 123 l51
100 295 6 c162 3 304 5 315 4 11 -1 20 -63 20 -141z m-1075 85 c-69 -64 -86
-127 -47 -171 53 -59 39 -64 -173 -58 l-205 6 -25 77 c-14 43 -44 103 -67 135
l-41 58 305 0 304 0 -51 -47z m-949 -108 c5 -52 6 -102 1 -110 -11 -17 -307
-21 -307 -4 0 34 76 117 148 159 122 74 145 67 158 -45z m252 62 c39 -27 102
-137 102 -178 0 -6 -38 -9 -85 -5 l-85 6 -6 105 c-7 113 2 122 74 72z m-231
-272 c7 -25 13 -75 13 -112 l0 -68 -175 9 c-208 11 -445 117 -445 199 0 46
595 18 607 -28z m333 23 c0 -28 -110 -138 -138 -138 -12 0 -22 36 -22 80 0 80
0 80 80 80 44 0 80 -10 80 -22z m1687 -23 c26 -95 17 -119 -32 -92 -102 54
-293 7 -371 -93 l-40 -50 -615 0 -616 0 41 45 c51 55 106 162 106 204 0 27 87
31 758 31 l757 0 12 -45z"/>
</g>
</svg>
