<?xml version="1.0" standalone="no"?>
<!DOCTYPE svg PUBLIC "-//W3C//DTD SVG 20010904//EN"
 "http://www.w3.org/TR/2001/REC-SVG-20010904/DTD/svg10.dtd">
<svg version="1.0" xmlns="http://www.w3.org/2000/svg"
 width="290.000000pt" height="290.000000pt" viewBox="0 0 290.000000 290.000000"
 preserveAspectRatio="xMidYMid meet">
<metadata>
Created by potrace 1.10, written by Peter Selinger 2001-2011
</metadata>
<g transform="translate(0.000000,290.000000) scale(0.050000,-0.050000)"
fill="#000000" stroke="none">
<path d="M2703 5137 c-69 -27 -154 -85 -240 -166 -73 -69 -144 -121 -158 -116
-163 56 -321 -200 -226 -369 72 -129 36 -186 -102 -162 -439 75 -838 -1 -974
-187 -69 -93 -68 -126 2 -64 173 153 458 202 841 145 207 -31 202 -24 156
-210 -38 -155 -67 -300 -92 -458 -11 -69 -31 -93 -137 -174 -67 -51 -190 -155
-271 -229 l-148 -136 -78 88 c-241 272 -369 561 -349 791 l12 140 -38 -46
c-134 -159 -31 -550 240 -906 l124 -162 -47 -63 c-377 -509 -443 -727 -308
-1019 94 -204 248 -315 478 -347 54 -7 92 -23 92 -38 0 -14 32 -53 71 -87 126
-111 331 -63 390 91 10 26 36 48 59 50 22 2 50 4 61 5 12 1 46 -57 75 -128
184 -445 436 -711 660 -696 l94 6 -100 36 c-187 66 -359 272 -489 584 -100
240 -102 232 92 288 86 25 235 76 330 112 l173 67 137 -55 c75 -31 218 -80
317 -110 99 -30 191 -58 205 -63 19 -6 12 -42 -25 -140 -136 -362 -350 -637
-535 -688 -109 -30 -125 -61 -30 -61 225 1 508 292 669 688 49 123 74 161 101
158 617 -74 892 -25 1050 187 71 96 58 104 -45 30 -45 -34 -129 -77 -186 -97
-203 -70 -835 -30 -804 51 31 79 71 261 101 461 l34 215 122 91 c68 50 187
151 266 224 79 72 152 132 163 132 31 0 46 -59 24 -100 -84 -158 22 -340 206
-356 l113 -9 42 -111 c46 -125 57 -236 33 -351 -13 -60 -11 -75 10 -69 77 26
97 294 36 475 -35 106 -36 123 -10 174 55 105 39 216 -41 296 -71 71 -88 78
-200 72 -101 -5 -149 64 -93 134 324 409 452 772 346 981 -55 108 -53 112 -52
-91 0 -202 -81 -405 -255 -635 -167 -220 -150 -218 -329 -50 -86 80 -203 180
-260 222 -131 97 -123 82 -158 317 -16 109 -46 263 -66 340 -21 78 -32 145
-25 149 195 113 867 47 1005 -100 47 -50 78 -62 78 -28 0 51 -150 181 -255
220 -212 80 -362 86 -851 34 -27 -3 -46 23 -73 99 -149 419 -426 728 -649 726
l-102 -1 101 -46 c216 -98 368 -303 530 -714 l38 -97 -85 -22 c-88 -23 -429
-142 -538 -188 -55 -23 -74 -22 -145 8 -44 19 -196 73 -336 120 -209 69 -255
91 -255 123 0 28 14 38 55 38 195 0 310 194 223 373 l-41 86 42 60 c44 62 198
201 222 201 53 0 163 65 137 81 -36 23 -29 24 -155 -24z m-363 -1037 c188 -57
360 -123 360 -138 0 -7 -61 -43 -135 -80 -74 -36 -214 -115 -310 -174 -96 -59
-180 -108 -186 -108 -12 0 -3 60 43 310 50 266 30 250 228 190z m1307 -95 c45
-201 77 -388 67 -398 -5 -4 -102 48 -216 117 -115 69 -256 148 -313 174 -153
71 -158 66 165 174 272 91 261 93 297 -67z m-522 -231 c213 -109 553 -315 601
-363 34 -34 54 -465 36 -771 l-12 -210 -150 -102 c-171 -117 -608 -364 -674
-381 -52 -13 -449 187 -714 360 l-166 108 -13 108 c-16 139 -17 664 0 786 15
111 120 191 566 434 300 164 271 162 526 31z m-1245 -865 l0 -371 -90 69
c-157 120 -333 292 -320 314 26 41 380 355 405 358 3 1 5 -166 5 -370z m2250
195 c95 -81 177 -158 182 -172 11 -28 -193 -234 -331 -336 l-81 -59 0 372 c0
317 4 371 29 357 15 -9 106 -82 201 -162z m-2587 -465 c100 -88 221 -188 269
-223 49 -34 88 -69 88 -77 0 -48 85 -487 111 -576 35 -118 36 -113 -25 -132
-35 -10 -50 -1 -73 44 -80 154 -344 138 -422 -26 -34 -71 -38 -73 -118 -61
-142 22 -276 79 -360 153 l-80 72 0 158 c0 234 102 459 331 734 98 116 64 124
279 -66z m773 -557 c129 -76 268 -154 309 -174 41 -19 75 -42 75 -50 0 -29
-509 -196 -531 -174 -21 21 -114 536 -97 536 6 0 115 -62 244 -138z m1396 53
c-23 -154 -95 -455 -109 -455 -63 0 -523 159 -523 181 0 7 44 33 97 58 54 25
191 102 305 172 250 151 246 151 230 44z"/>
</g>
</svg>
