<?xml version="1.0" standalone="no"?>
<!DOCTYPE svg PUBLIC "-//W3C//DTD SVG 20010904//EN"
 "http://www.w3.org/TR/2001/REC-SVG-20010904/DTD/svg10.dtd">
<svg version="1.0" xmlns="http://www.w3.org/2000/svg"
 width="290.000000pt" height="290.000000pt" viewBox="0 0 290.000000 290.000000"
 preserveAspectRatio="xMidYMid meet">
<metadata>
Created by potrace 1.10, written by Peter Selinger 2001-2011
</metadata>
<g transform="translate(0.000000,290.000000) scale(0.050000,-0.050000)"
fill="#000000" stroke="none">
<path d="M3490 5161 c-6 -11 -49 -15 -96 -9 -77 11 -92 5 -176 -69 -87 -77
-96 -80 -155 -58 -78 29 -69 37 -291 -275 l-170 -240 50 -45 51 -45 -135 -195
c-74 -107 -138 -199 -141 -204 -4 -4 -35 18 -68 50 -75 72 -103 59 -196 -98
-83 -139 -78 -151 91 -245 75 -42 256 -160 404 -263 147 -103 274 -180 281
-171 69 79 136 243 110 268 -26 27 176 333 407 616 l56 69 144 -76 c603 -317
679 -1042 167 -1594 -540 -584 -1157 -688 -1809 -306 -191 112 -194 119 -107
252 38 59 81 143 95 187 15 44 29 83 31 87 3 4 58 -32 124 -80 65 -48 179
-131 253 -185 l135 -98 37 48 c70 91 51 117 -224 318 -144 105 -325 237 -404
295 -343 251 -352 254 -397 156 -30 -65 -15 -81 242 -272 l198 -147 -68 -61
c-38 -34 -114 -145 -170 -248 l-101 -188 83 -72 c208 -183 523 -341 768 -386
72 -13 131 -29 131 -35 -1 -7 -22 -115 -48 -241 l-46 -228 -198 -35 c-532 -93
-783 -218 -710 -355 23 -43 80 -63 295 -104 183 -35 1629 -13 1817 27 317 69
353 94 271 199 -85 107 -356 183 -741 205 -274 16 -247 -8 -288 252 -19 116
-39 230 -45 252 -9 36 1 44 76 56 1266 212 1822 2017 756 2453 -183 75 -182
61 -30 263 109 145 131 199 90 224 -11 8 -15 41 -8 78 17 91 -34 202 -115 251
-69 43 -205 55 -226 22z m171 -51 c59 -31 119 -121 119 -179 0 -44 -9 -41
-135 54 -62 47 -122 91 -132 98 -70 49 59 72 148 27z m-134 -220 c64 -40 148
-87 187 -103 l70 -29 -95 -63 c-154 -102 -313 -330 -598 -860 -84 -155 -98
-172 -129 -150 -451 327 -464 339 -427 383 19 22 137 151 263 286 271 291 366
414 449 581 l61 124 51 -47 c28 -26 104 -81 168 -122z m-480 93 c33 -13 29
-24 -40 -114 -42 -55 -111 -149 -152 -209 -137 -200 -148 -211 -182 -182 -27
22 -22 35 46 106 43 44 120 156 172 248 51 92 99 167 106 167 7 -1 30 -8 50
-16z m-674 -1030 c32 -26 176 -125 322 -220 275 -181 286 -194 245 -302 -22
-58 -63 -66 -102 -19 -14 18 -112 95 -217 171 -105 76 -227 166 -271 200 -44
33 -92 67 -106 75 -21 12 -19 28 10 78 43 76 47 77 119 17z m977 -2721 c355
-39 610 -118 610 -190 0 -76 -2143 -65 -2220 11 -57 58 259 148 630 179 187
16 349 34 360 38 29 13 294 -3 620 -38z"/>
</g>
</svg>
