<?xml version="1.0" standalone="no"?>
<!DOCTYPE svg PUBLIC "-//W3C//DTD SVG 20010904//EN"
 "http://www.w3.org/TR/2001/REC-SVG-20010904/DTD/svg10.dtd">
<svg version="1.0" xmlns="http://www.w3.org/2000/svg"
 width="290.000000pt" height="290.000000pt" viewBox="0 0 290.000000 290.000000"
 preserveAspectRatio="xMidYMid meet">
<metadata>
Created by potrace 1.10, written by Peter Selinger 2001-2011
</metadata>
<g transform="translate(0.000000,290.000000) scale(0.050000,-0.050000)"
fill="#000000" stroke="none">
<path d="M3742 5069 c-499 -108 -969 -572 -1134 -1119 -51 -168 -55 -208 -58
-590 -8 -879 -122 -1320 -482 -1864 -70 -107 -128 -199 -128 -206 0 -6 -38
-63 -84 -126 -81 -110 -176 -326 -176 -402 0 -49 169 -122 281 -122 106 0 168
62 271 276 41 84 104 199 138 254 35 55 116 190 181 300 176 295 270 411 392
482 416 241 705 381 1073 518 965 359 1380 1763 679 2298 -201 153 -236 134
-74 -41 105 -113 105 -117 43 -217 l-56 -91 -129 83 c-71 45 -131 85 -134 87
-2 2 30 74 73 160 89 177 88 183 -10 247 -144 94 -427 125 -666 73z m318 -100
c0 -6 -20 -40 -45 -75 -25 -35 -46 -67 -48 -70 -5 -12 -187 84 -187 99 0 17
143 52 225 55 30 1 55 -3 55 -9z m240 -41 c181 -44 174 -40 136 -83 -17 -19
-50 -73 -73 -119 -24 -46 -51 -89 -62 -95 -28 -17 -281 131 -281 164 0 43 88
186 110 178 11 -4 88 -24 170 -45z m-468 -93 c59 -35 108 -70 108 -77 0 -19
-158 -258 -171 -258 -11 0 -249 135 -265 150 -10 9 76 175 111 215 45 50 94
44 217 -30z m-312 -24 c0 -30 -50 -111 -68 -111 -65 1 -74 36 -19 77 55 40 87
53 87 34z m736 -241 c6 -6 -28 -64 -129 -226 l-29 -46 -114 64 c-174 98 -169
84 -80 237 l80 138 133 -81 c73 -44 136 -83 139 -86z m-868 84 c33 -24 30 -35
-48 -160 l-84 -134 -78 44 c-101 56 -98 74 24 184 110 99 131 106 186 66z
m228 -126 c63 -40 117 -76 121 -80 14 -12 -145 -268 -167 -268 -35 0 -250 141
-250 165 0 30 146 255 166 255 9 0 67 -33 130 -72z m1193 -91 c53 -143 39
-166 -63 -101 -98 62 -100 71 -45 162 47 76 60 69 108 -61z m-360 21 c154 -97
149 -77 56 -221 -88 -137 -80 -135 -219 -55 -141 81 -144 94 -56 237 87 144
59 139 219 39z m-1308 -78 c43 -23 79 -51 79 -62 0 -31 -144 -261 -158 -253
-7 3 -46 23 -87 44 -41 21 -75 49 -75 62 0 22 141 249 155 249 4 0 42 -18 86
-40z m798 -51 c146 -85 148 -58 -32 -346 -6 -10 -266 146 -267 161 0 25 145
256 161 256 9 0 71 -32 138 -71z m811 -44 c124 -68 136 -122 58 -265 -65 -120
-65 -120 -225 -19 l-127 80 36 55 c109 168 134 204 146 204 6 -1 57 -25 112
-55z m-1238 -136 c33 -20 30 -32 -39 -155 -88 -158 -68 -152 -226 -60 -150 88
-147 72 -45 232 l82 129 96 -63 c53 -34 113 -72 132 -83z m867 -83 c9 -7 -24
-68 -112 -210 l-46 -74 -99 64 c-54 35 -114 73 -133 85 -39 23 -13 94 84 223
l48 64 124 -73 c69 -40 129 -76 134 -79z m-1366 -78 c9 -22 -120 -248 -141
-248 -113 0 -123 51 -48 254 l38 104 71 -42 c39 -23 75 -54 80 -68z m738 19
l124 -73 -82 -136 -82 -137 -111 62 c-173 96 -171 92 -87 233 86 146 79 144
238 51z m821 -59 c151 -84 148 -73 53 -226 -89 -144 -72 -140 -223 -47 -144
89 -140 72 -50 224 86 143 62 138 220 49z m300 -12 c-16 -101 -22 -109 -59
-79 -24 20 -23 34 5 93 44 94 70 87 54 -14z m-1658 -38 c139 -80 142 -91 65
-226 -82 -147 -80 -146 -219 -62 -154 93 -151 82 -56 226 95 146 74 139 210
62z m920 -130 l53 -42 -75 -123 c-88 -145 -77 -142 -232 -50 -135 80 -134 74
-31 234 l72 113 80 -45 c44 -25 103 -64 133 -87z m706 -12 c0 -87 -65 -276
-95 -276 -35 0 -145 63 -145 83 0 17 112 212 144 252 29 35 96 -6 96 -59z
m-1290 -65 c63 -38 119 -73 123 -78 34 -33 -161 -272 -201 -247 -23 15 -85 52
-137 83 l-96 55 38 63 c21 35 54 92 75 128 46 81 57 81 198 -4z m-729 -49
c-62 -111 -80 -116 -80 -20 -1 109 13 129 62 86 25 -23 30 -43 18 -66z m1561
-13 c65 -40 118 -80 118 -89 0 -22 -142 -260 -155 -260 -8 0 -235 132 -262
152 -12 9 146 267 164 268 10 0 71 -32 135 -71z m-1343 -61 c66 -40 121 -77
121 -83 0 -8 -132 -236 -152 -262 -10 -12 -206 102 -241 140 -30 33 -30 40 -2
72 16 19 50 73 73 120 52 103 49 103 201 13z m747 -16 c24 -15 82 -51 128 -79
l84 -52 -74 -130 c-41 -72 -82 -131 -91 -131 -13 0 -220 116 -269 151 -7 5
160 269 170 269 4 0 27 -13 52 -28z m951 -124 c11 -9 -143 -268 -159 -268 -8
0 -50 21 -95 46 l-81 46 80 134 80 134 84 -43 c46 -23 87 -45 91 -49z m-1377
-55 c128 -78 129 -89 33 -239 l-72 -113 -122 73 c-155 92 -157 100 -71 235 84
130 89 131 232 44z m832 -65 c149 -83 145 -66 49 -218 -87 -138 -96 -140 -247
-44 l-112 72 74 130 c87 154 74 151 236 60z m-1316 -75 l100 -68 -57 -86 -57
-87 -39 90 c-40 95 -73 218 -57 218 6 0 55 -30 110 -67z m795 -48 c152 -89
147 -69 56 -222 -83 -140 -82 -139 -182 -76 -41 26 -99 62 -129 80 l-54 33 82
130 c46 71 87 130 91 130 4 0 65 -34 136 -75z m814 -29 c78 -28 70 -52 -63
-184 l-118 -117 -51 38 c-29 20 -50 42 -47 47 39 92 170 258 194 248 17 -7 55
-21 85 -32z m-1320 -103 l134 -85 -72 -109 c-40 -60 -80 -117 -89 -127 -20
-23 -140 67 -197 147 l-43 59 52 101 c61 121 48 120 215 14z m829 -58 c146
-75 149 -87 57 -207 -38 -50 -72 -100 -75 -111 -8 -22 -276 116 -276 140 0 22
142 243 156 243 7 0 69 -29 138 -65z m-521 -126 c146 -82 145 -78 72 -197 -62
-102 -104 -107 -280 -31 -102 44 -101 29 -13 178 86 143 64 138 221 50z m787
-27 c0 -9 -36 -41 -80 -70 -90 -59 -99 -46 -38 57 39 66 118 75 118 13z
m-1471 -90 c103 -129 288 -263 422 -305 132 -42 133 -45 16 -106 -51 -27 -192
-116 -312 -196 -121 -81 -235 -144 -252 -140 -35 7 -36 17 -4 205 12 66 21
246 21 399 0 153 7 270 16 260 9 -10 51 -63 93 -117z m1091 -115 c0 -17 -181
-57 -261 -57 l-60 0 33 65 c59 117 62 118 180 60 59 -29 108 -60 108 -68z"/>
<path d="M1330 3473 c-93 -43 -230 -170 -230 -213 0 -11 37 -38 83 -61 181
-93 298 -299 304 -534 l3 -125 72 0 c93 0 306 106 357 178 l40 56 -47 21
c-193 89 -323 421 -267 689 10 50 -202 43 -315 -11z"/>
<path d="M1713 3435 c-44 -162 4 -324 141 -477 58 -66 107 -130 108 -144 5
-80 56 118 57 222 1 160 -65 299 -182 384 -99 72 -109 73 -124 15z"/>
<path d="M1050 3120 c-36 -212 56 -401 250 -518 69 -41 152 -57 132 -25 -6 9
-20 78 -32 155 -32 205 -84 295 -220 388 l-117 79 -13 -79z"/>
</g>
</svg>
