<?xml version="1.0" standalone="no"?>
<!DOCTYPE svg PUBLIC "-//W3C//DTD SVG 20010904//EN"
 "http://www.w3.org/TR/2001/REC-SVG-20010904/DTD/svg10.dtd">
<svg version="1.0" xmlns="http://www.w3.org/2000/svg"
 width="290.000000pt" height="290.000000pt" viewBox="0 0 290.000000 290.000000"
 preserveAspectRatio="xMidYMid meet">
<metadata>
Created by potrace 1.10, written by Peter Selinger 2001-2011
</metadata>
<g transform="translate(0.000000,290.000000) scale(0.050000,-0.050000)"
fill="#000000" stroke="none">
<path d="M3494 4738 c-329 -174 -827 -1184 -1082 -2196 l-62 -248 -184 -80
c-102 -44 -180 -88 -174 -97 13 -22 156 -21 253 1 l75 18 0 -246 c0 -391 90
-603 303 -711 503 -257 1003 657 533 974 -204 137 -470 92 -568 -97 -45 -87
-20 -91 52 -9 274 312 720 -55 545 -449 -232 -525 -706 -380 -709 216 -2 357
2 368 160 441 840 390 1444 1192 1449 1925 3 434 -294 715 -591 558z m285
-175 c189 -137 196 -591 16 -983 -197 -426 -618 -878 -999 -1071 -128 -65
-239 -113 -245 -107 -45 45 315 1051 531 1485 325 651 499 819 697 676z"/>
<path d="M1522 3839 c-523 -104 -759 -885 -380 -1256 208 -203 434 -150 679
161 l75 94 63 -130 c142 -287 264 -232 148 67 -47 120 -54 174 -67 495 -15
376 -44 510 -110 510 -18 0 -56 12 -86 27 -75 39 -218 52 -322 32z m323 -482
l-5 -363 -95 -112 c-252 -296 -422 -326 -532 -95 -208 437 68 924 527 931
l110 2 -5 -363z"/>
<path d="M4220 3182 c-499 -162 -837 -1013 -515 -1295 223 -196 850 -144 1090
89 103 100 37 111 -146 25 -342 -161 -819 -126 -900 68 -97 233 125 744 404
929 133 88 276 87 445 -2 134 -70 171 -64 109 19 -100 135 -337 216 -487 167z"/>
</g>
</svg>
