<?xml version="1.0" standalone="no"?>
<!DOCTYPE svg PUBLIC "-//W3C//DTD SVG 20010904//EN"
 "http://www.w3.org/TR/2001/REC-SVG-20010904/DTD/svg10.dtd">
<svg version="1.0" xmlns="http://www.w3.org/2000/svg"
 width="290.000000pt" height="290.000000pt" viewBox="0 0 290.000000 290.000000"
 preserveAspectRatio="xMidYMid meet">
<metadata>
Created by potrace 1.10, written by Peter Selinger 2001-2011
</metadata>
<g transform="translate(0.000000,290.000000) scale(0.050000,-0.050000)"
fill="#000000" stroke="none">
<path d="M2499 4919 c-941 -139 -1679 -1013 -1679 -1988 0 -993 647 -1786
1660 -2034 158 -39 688 -33 874 9 1758 401 2200 2727 706 3711 -287 189 -408
222 -925 254 -340 20 -274 -28 175 -132 1399 -321 1884 -2065 861 -3090 -230
-231 -590 -428 -873 -480 -329 -59 -452 -63 -710 -19 -1192 202 -1863 1483
-1356 2587 239 521 680 881 1231 1004 265 59 417 110 417 141 0 47 -187 65
-381 37z"/>
<path d="M2771 4380 l-112 -220 71 0 70 0 0 -552 c0 -303 -7 -548 -16 -545 -8
4 -117 65 -241 137 -226 130 -230 135 -194 222 12 29 -455 78 -483 51 -6 -7
238 -381 270 -413 5 -5 13 0 17 12 35 97 44 95 347 -78 l290 -165 6 -125 6
-124 99 0 c97 0 99 1 99 60 0 59 26 79 50 40 24 -39 61 -19 105 59 51 89 54
101 25 101 -12 0 -57 23 -100 50 l-80 51 0 609 0 610 60 0 c33 0 60 4 60 10 0
24 -211 430 -223 430 -8 0 -65 -99 -126 -220z"/>
<path d="M2025 4358 c-62 -40 -63 -44 -35 -95 59 -109 58 -109 137 -62 85 50
85 49 33 134 -46 76 -50 77 -135 23z"/>
<path d="M3633 4339 c-44 -74 -36 -98 44 -145 l62 -36 41 66 c53 87 51 100
-22 141 -80 46 -83 45 -125 -26z"/>
<path d="M1405 3740 l-45 -79 55 -34 c30 -19 66 -43 79 -52 16 -12 37 8 66 65
24 46 40 86 36 88 -154 110 -136 109 -191 12z"/>
<path d="M4270 3779 c-33 -21 -67 -41 -76 -44 -9 -3 5 -43 30 -88 l45 -83 75
43 c42 24 76 49 76 57 0 13 -81 157 -87 155 -2 -1 -30 -19 -63 -40z"/>
<path d="M1180 2880 l0 -100 90 0 90 0 0 100 0 100 -90 0 -90 0 0 -100z"/>
<path d="M4440 2879 l0 -101 85 6 85 6 6 95 6 95 -91 0 -91 0 0 -101z"/>
<path d="M1445 2155 c-75 -45 -78 -57 -31 -137 41 -69 44 -70 133 -17 l70 41
-40 69 c-53 89 -55 90 -132 44z"/>
<path d="M4222 2120 l-44 -79 66 -41 c86 -52 90 -51 136 25 52 84 53 81 -37
131 l-76 43 -45 -79z"/>
<path d="M2005 1525 l-42 -75 68 -45 c86 -56 77 -58 127 26 52 89 55 77 -29
127 -88 52 -74 55 -124 -33z"/>
<path d="M3656 1553 l-73 -45 42 -69 c23 -38 45 -72 48 -76 6 -9 147 76 147
88 0 19 -69 149 -79 148 -6 0 -44 -21 -85 -46z"/>
<path d="M2800 1270 l0 -90 88 0 c86 0 88 1 97 75 12 99 7 105 -96 105 l-89 0
0 -90z"/>
</g>
</svg>
