<?xml version="1.0" standalone="no"?>
<!DOCTYPE svg PUBLIC "-//W3C//DTD SVG 20010904//EN"
 "http://www.w3.org/TR/2001/REC-SVG-20010904/DTD/svg10.dtd">
<svg version="1.0" xmlns="http://www.w3.org/2000/svg"
 width="290.000000pt" height="290.000000pt" viewBox="0 0 290.000000 290.000000"
 preserveAspectRatio="xMidYMid meet">
<metadata>
Created by potrace 1.10, written by Peter Selinger 2001-2011
</metadata>
<g transform="translate(0.000000,290.000000) scale(0.050000,-0.050000)"
fill="#000000" stroke="none">
<path d="M2727 4861 c-72 -43 -95 -97 -78 -176 11 -52 6 -57 -110 -93 -292
-90 -549 -381 -693 -782 -41 -116 -166 -831 -215 -1230 l-9 -70 38 70 c57 104
92 227 129 450 125 750 218 996 468 1241 313 306 846 340 1178 75 187 -150
417 -556 455 -806 4 -27 31 -149 58 -270 28 -121 68 -339 90 -484 39 -265 89
-415 184 -548 59 -83 51 -84 -152 -16 -648 218 -2065 171 -2575 -85 -94 -47
-95 -23 -4 95 39 52 84 121 101 156 l30 62 -42 -50 c-24 -27 -94 -107 -156
-177 -266 -296 -247 -419 89 -596 512 -271 1704 -357 2402 -175 107 28 222 58
255 67 319 83 477 273 382 457 -18 35 -30 67 -27 72 3 5 -54 88 -126 185 -158
212 -189 284 -219 507 -151 1126 -442 1697 -946 1860 -150 49 -153 51 -154
116 0 163 -194 242 -353 145z m270 -56 c23 -19 47 -60 54 -90 l13 -55 -129 0
c-72 0 -158 -6 -192 -12 -60 -12 -63 -10 -63 48 0 124 213 197 317 109z m193
-2624 l60 -15 -52 -21 c-212 -88 -253 -456 -66 -603 80 -63 35 -69 -399 -56
-608 18 -1013 106 -1288 281 -220 140 -130 213 425 344 250 59 1164 107 1320
70z m700 -60 c376 -79 537 -147 559 -234 30 -121 -126 -201 -646 -328 -193
-48 -203 -45 -140 41 89 121 61 375 -54 490 l-70 70 85 0 c47 0 167 -18 266
-39z m-384 -43 c255 -131 216 -437 -66 -518 -180 -52 -368 134 -332 328 29
154 256 262 398 190z"/>
</g>
</svg>
