<?xml version="1.0" standalone="no"?>
<!DOCTYPE svg PUBLIC "-//W3C//DTD SVG 20010904//EN"
 "http://www.w3.org/TR/2001/REC-SVG-20010904/DTD/svg10.dtd">
<svg version="1.0" xmlns="http://www.w3.org/2000/svg"
 width="290.000000pt" height="290.000000pt" viewBox="0 0 290.000000 290.000000"
 preserveAspectRatio="xMidYMid meet">
<metadata>
Created by potrace 1.10, written by Peter Selinger 2001-2011
</metadata>
<g transform="translate(0.000000,290.000000) scale(0.050000,-0.050000)"
fill="#000000" stroke="none">
<path d="M4620 4410 c-248 -112 -1173 -466 -1570 -600 -44 -15 -165 -60 -270
-99 -104 -40 -311 -117 -460 -171 -231 -84 -604 -226 -940 -360 -49 -19 -157
-64 -240 -99 -82 -36 -194 -82 -247 -104 -54 -21 -132 -56 -173 -77 -41 -21
-82 -32 -90 -24 -9 8 -5 -5 7 -29 46 -89 219 -212 481 -345 262 -132 272 -139
265 -195 -24 -212 7 -783 45 -822 13 -12 282 162 396 258 l95 78 69 -75 c340
-370 508 -525 645 -593 l142 -71 118 183 c64 100 122 192 127 204 6 11 33 57
62 101 164 251 238 370 238 381 0 7 26 50 58 96 32 46 84 124 115 173 31 50
65 105 77 122 11 18 40 68 65 110 25 43 65 110 90 150 25 39 75 120 111 180
37 59 98 158 136 218 38 61 78 128 88 150 11 22 57 99 102 170 173 272 318
537 461 840 65 138 127 266 137 285 11 19 18 35 15 34 -3 0 -72 -31 -155 -69z
m-360 -325 c0 -8 -30 -35 -65 -59 -58 -39 -198 -146 -587 -448 -271 -210
-1003 -772 -1058 -813 -671 -495 -839 -636 -953 -805 -119 -175 -174 -225
-150 -138 6 27 18 153 26 282 10 188 19 236 45 246 55 21 429 236 494 284 34
25 68 46 75 46 18 0 504 321 893 590 171 117 495 335 720 484 226 149 433 287
460 307 52 38 100 50 100 24z m-291 -63 c6 -11 -54 -59 -134 -108 -80 -49
-298 -186 -485 -305 -187 -119 -391 -248 -453 -287 -126 -79 -492 -312 -1057
-671 -344 -219 -373 -233 -415 -208 -24 15 -133 87 -241 161 -109 73 -248 158
-311 189 -122 60 -142 87 -63 87 87 0 673 175 960 286 222 86 730 291 1150
463 259 106 583 234 720 284 138 50 264 99 280 108 38 22 36 22 49 1z m339
-214 c-63 -109 -124 -216 -137 -238 -12 -22 -58 -94 -101 -160 -99 -151 -253
-410 -322 -540 -29 -55 -66 -116 -83 -135 -17 -19 -24 -35 -15 -35 9 0 2 -16
-15 -35 -31 -35 -79 -121 -251 -445 -49 -93 -100 -183 -114 -200 -13 -16 -38
-57 -54 -90 -17 -33 -64 -118 -106 -190 -117 -202 -147 -255 -189 -329 -136
-240 -156 -255 -216 -173 -37 50 -504 463 -833 737 -134 112 -135 106 22 216
75 53 199 143 276 199 260 192 657 481 1242 907 321 232 676 493 790 579 248
186 250 185 106 -68z m-2523 -1858 c73 -64 73 -64 -60 -191 -289 -276 -301
-262 -91 116 79 142 77 141 151 75z"/>
</g>
</svg>
