<?xml version="1.0" standalone="no"?>
<!DOCTYPE svg PUBLIC "-//W3C//DTD SVG 20010904//EN"
 "http://www.w3.org/TR/2001/REC-SVG-20010904/DTD/svg10.dtd">
<svg version="1.0" xmlns="http://www.w3.org/2000/svg"
 width="290.000000pt" height="290.000000pt" viewBox="0 0 290.000000 290.000000"
 preserveAspectRatio="xMidYMid meet">
<metadata>
Created by potrace 1.10, written by Peter Selinger 2001-2011
</metadata>
<g transform="translate(0.000000,290.000000) scale(0.100000,-0.100000)"
fill="#000000" stroke="none">
<path d="M1888 2283 c-9 -10 -28 -37 -42 -61 -21 -34 -41 -49 -89 -71 -74 -33
-131 -93 -148 -153 -7 -26 -9 -72 -5 -118 l6 -76 -35 -33 c-19 -18 -35 -29
-36 -24 0 4 -2 19 -4 33 -2 14 -7 52 -10 85 -10 86 -24 49 -30 -76 -5 -101 -5
-103 -49 -168 -99 -150 -183 -335 -236 -521 -10 -36 -31 -108 -45 -160 -15
-52 -31 -99 -35 -104 -4 -4 -21 1 -37 11 -15 11 -53 36 -84 57 -129 84 -249
232 -300 367 -26 71 -32 102 -36 199 -5 109 -4 120 25 206 52 154 128 252 270
345 243 160 506 135 537 -51 9 -53 25 -51 25 3 -1 94 -69 173 -172 197 -32 8
-83 11 -137 7 -264 -18 -520 -221 -602 -477 -48 -148 -34 -364 33 -510 83
-182 210 -310 433 -436 21 -12 23 -57 4 -80 -5 -6 -6 -13 -3 -17 3 -3 1 -14
-5 -25 -18 -35 -40 -183 -30 -209 20 -54 67 -15 186 153 l68 96 45 -7 c190
-27 343 -2 519 85 191 94 342 255 371 396 23 108 -29 223 -128 289 -47 31
-148 68 -247 90 -112 25 -148 41 -136 63 5 9 12 48 16 85 7 59 11 69 34 81 41
22 129 116 152 163 40 84 47 215 16 341 -12 46 -32 55 -59 25z m31 -131 c14
-118 10 -153 -24 -222 -24 -47 -159 -180 -183 -180 -8 0 -27 9 -43 21 -29 20
-29 21 -29 120 0 68 5 109 15 128 20 39 69 78 132 106 46 21 56 31 80 79 15
31 30 56 33 56 4 0 12 -49 19 -108z m-279 -392 c11 -11 33 -20 50 -20 17 0 30
-5 30 -11 0 -30 -56 -212 -66 -216 -15 -6 -154 64 -154 77 0 6 15 31 34 57 19
27 44 67 56 91 12 23 24 42 26 42 2 0 13 -9 24 -20z m-64 -259 c87 -31 82 -27
75 -63 -7 -33 -11 -35 -62 -25 -35 7 -122 52 -138 71 -11 13 -9 21 8 50 l21
34 29 -27 c15 -14 45 -32 67 -40z m214 -26 c258 -73 336 -120 365 -219 25 -82
-7 -163 -101 -265 -100 -108 -264 -199 -424 -235 -73 -17 -256 -20 -265 -5 -3
4 17 40 44 80 92 141 218 359 207 359 -3 0 3 17 14 38 22 43 70 204 70 236 0
29 10 38 29 30 9 -3 36 -12 61 -19z m-309 -58 c15 -9 53 -25 85 -36 51 -17 59
-23 56 -43 -3 -30 -80 -185 -141 -285 -55 -91 -269 -414 -326 -492 -39 -53
-57 -55 -36 -3 6 15 20 68 31 117 11 50 23 97 27 105 3 8 7 20 9 25 57 214
133 452 173 543 16 37 35 81 41 97 l11 28 22 -20 c12 -10 34 -27 48 -36z"/>
<path d="M1899 1221 c-24 -24 -29 -38 -29 -76 0 -38 5 -52 29 -76 83 -83 217
17 166 124 -30 64 -115 78 -166 28z m110 -32 c27 -26 27 -63 -1 -89 -31 -28
-72 -26 -97 6 -29 36 -26 58 9 87 32 28 56 27 89 -4z"/>
<path d="M1634 1060 c-77 -31 -86 -151 -14 -193 53 -32 125 -13 148 38 16 36
15 55 -7 101 -27 55 -74 75 -127 54z m81 -44 c24 -10 35 -22 35 -35 0 -82 -93
-114 -131 -45 -10 20 -10 28 0 48 11 19 38 40 59 45 1 1 18 -6 37 -13z"/>
<path d="M1200 1991 c-95 -18 -137 -74 -132 -178 4 -69 95 -133 191 -133 52 0
57 2 98 46 42 43 44 48 42 100 -3 65 -25 104 -76 137 -46 30 -76 36 -123 28z
m88 -61 c46 -28 74 -77 68 -119 -9 -61 -87 -118 -148 -109 -51 7 -98 71 -98
135 0 47 21 79 63 97 45 20 77 19 115 -4z"/>
<path d="M834 1750 c-63 -25 -82 -109 -39 -166 65 -85 194 -34 181 70 -7 56
-14 71 -45 89 -31 18 -64 21 -97 7z m101 -55 c30 -29 31 -45 4 -79 -38 -48
-119 -26 -119 32 0 33 37 72 67 72 13 0 35 -11 48 -25z"/>
<path d="M865 1442 c-46 -4 -73 -22 -90 -58 -27 -57 -1 -113 63 -141 69 -29
142 23 142 101 0 69 -43 106 -115 98z m69 -74 c7 -20 5 -33 -7 -52 -25 -38
-62 -44 -93 -15 -32 30 -32 72 1 105 l26 25 32 -18 c17 -11 36 -31 41 -45z"/>
<path d="M984 1184 c-61 -30 -73 -112 -25 -166 24 -28 35 -32 75 -32 51 1 86
25 106 74 17 41 -10 93 -61 119 -47 25 -55 25 -95 5z m111 -54 c18 -40 18 -41
-2 -68 -28 -38 -78 -38 -107 1 -19 26 -19 30 -5 55 15 28 52 52 80 52 9 0 24
-17 34 -40z"/>
</g>
</svg>
