<?xml version="1.0" standalone="no"?>
<!DOCTYPE svg PUBLIC "-//W3C//DTD SVG 20010904//EN"
 "http://www.w3.org/TR/2001/REC-SVG-20010904/DTD/svg10.dtd">
<svg version="1.0" xmlns="http://www.w3.org/2000/svg"
 width="290.000000pt" height="290.000000pt" viewBox="0 0 290.000000 290.000000"
 preserveAspectRatio="xMidYMid meet">
<metadata>
Created by potrace 1.10, written by Peter Selinger 2001-2011
</metadata>
<g transform="translate(0.000000,290.000000) scale(0.100000,-0.100000)"
fill="#000000" stroke="none">
<path d="M847 2371 c-105 -49 -147 -160 -99 -259 18 -36 304 -536 442 -772 37
-63 154 -266 260 -450 106 -184 209 -352 228 -372 52 -54 109 -78 187 -78 72
0 120 19 177 69 76 66 102 188 59 269 -11 20 -22 55 -25 77 -8 58 -89 211
-191 362 -50 73 -119 180 -155 237 -71 115 -324 522 -338 546 -20 32 -21 0 -2
-55 27 -80 76 -166 188 -330 100 -147 142 -214 354 -563 178 -293 200 -375
130 -477 -73 -106 -218 -135 -324 -65 -40 27 -67 69 -282 442 -131 227 -251
433 -267 458 -15 25 -59 99 -97 165 -39 66 -128 220 -200 341 -71 122 -133
236 -137 254 -4 18 -2 51 5 76 32 115 171 158 262 82 15 -13 143 -223 284
-468 141 -245 297 -512 347 -595 49 -82 95 -163 102 -179 17 -39 3 -95 -31
-125 -23 -19 -36 -22 -71 -18 -47 5 -83 30 -83 57 0 28 -119 255 -195 372
-129 199 -140 215 -203 309 -92 136 -106 131 -38 -16 18 -38 84 -149 148 -245
152 -233 238 -369 268 -427 32 -61 79 -89 135 -79 51 10 100 59 109 110 9 48
15 37 -254 501 -112 193 -259 447 -327 565 -69 118 -137 228 -151 244 -53 56
-140 72 -215 37z"/>
</g>
</svg>
