<?xml version="1.0" standalone="no"?>
<!DOCTYPE svg PUBLIC "-//W3C//DTD SVG 20010904//EN"
 "http://www.w3.org/TR/2001/REC-SVG-20010904/DTD/svg10.dtd">
<svg version="1.0" xmlns="http://www.w3.org/2000/svg"
 width="290.000000pt" height="290.000000pt" viewBox="0 0 290.000000 290.000000"
 preserveAspectRatio="xMidYMid meet">
<metadata>
Created by potrace 1.10, written by Peter Selinger 2001-2011
</metadata>
<g transform="translate(0.000000,290.000000) scale(0.050000,-0.050000)"
fill="#000000" stroke="none">
<path d="M3970 4907 c-214 -9 -1164 -66 -1490 -89 -327 -24 -313 -17 -385
-203 l-45 -119 -130 8 -131 7 -5 -111 c-3 -60 -15 -174 -27 -253 l-22 -142
-90 -13 c-50 -6 -134 -12 -186 -12 l-95 0 -41 -122 c-111 -327 -100 -1015 37
-2292 11 -101 20 -298 20 -437 l0 -253 345 13 c190 7 449 22 575 32 437 36
1151 79 1315 79 l165 0 0 157 0 158 137 -10 137 -10 13 256 c15 306 -24 267
283 282 l255 13 -12 612 c-11 580 -26 886 -71 1462 -11 138 -26 419 -33 625
l-14 375 -182 -4 c-101 -2 -246 -6 -323 -9z m410 -1385 l-1 -1298 50 -115 c76
-170 77 -169 -117 -169 -93 0 -183 -5 -200 -12 -34 -13 -34 -21 -2 432 42 593
69 1196 71 1580 l2 450 -146 4 c-203 6 -834 43 -1147 67 -613 47 -544 34 -570
106 -13 34 -36 93 -53 130 -36 84 -27 94 47 56 245 -126 840 -111 1716 45 55
9 156 18 225 20 l126 2 -1 -1298z m-1510 829 c363 -27 783 -57 934 -65 l273
-16 -58 -137 -59 -137 0 -1298 0 -1298 -88 0 -87 0 -12 205 c-7 113 -18 340
-24 505 -6 165 -24 467 -39 670 -15 204 -34 504 -41 668 -8 164 -17 326 -20
360 -4 34 -7 114 -8 179 l-1 116 -175 -11 c-463 -30 -1545 -79 -1553 -71 -5 5
-15 92 -23 194 l-14 185 168 0 c92 0 464 -22 827 -49z m670 -1649 l0 -1298 60
-134 c33 -74 60 -141 60 -149 0 -8 -187 -20 -415 -27 -228 -7 -496 -21 -595
-32 -332 -36 -1128 -87 -1159 -75 -38 14 -42 538 -11 1459 21 623 2 1155 -49
1364 -16 66 -30 126 -30 134 -1 8 37 -3 84 -23 221 -97 722 -105 1255 -21 339
53 650 95 735 98 l65 2 0 -1298z"/>
</g>
</svg>
