<?xml version="1.0" standalone="no"?>
<!DOCTYPE svg PUBLIC "-//W3C//DTD SVG 20010904//EN"
 "http://www.w3.org/TR/2001/REC-SVG-20010904/DTD/svg10.dtd">
<svg version="1.0" xmlns="http://www.w3.org/2000/svg"
 width="290.000000pt" height="290.000000pt" viewBox="0 0 290.000000 290.000000"
 preserveAspectRatio="xMidYMid meet">
<metadata>
Created by potrace 1.10, written by Peter Selinger 2001-2011
</metadata>
<g transform="translate(0.000000,290.000000) scale(0.100000,-0.100000)"
fill="#000000" stroke="none">
<path d="M1520 2564 c-52 -7 -143 -16 -202 -20 l-107 -7 14 -27 c7 -14 21 -32
29 -39 9 -8 16 -28 16 -46 l0 -34 -202 -3 c-202 -3 -203 -3 -251 -31 -59 -35
-101 -92 -117 -159 -10 -39 -11 -213 -6 -757 4 -388 9 -725 13 -749 9 -66 58
-131 123 -164 30 -15 68 -28 83 -28 43 0 28 24 -19 31 -21 3 -49 10 -60 17
-28 15 -73 68 -86 101 -10 25 -12 1004 -3 1377 5 174 9 193 51 243 49 59 77
65 286 66 104 0 188 -3 188 -7 0 -5 -5 -8 -11 -8 -11 0 -229 -209 -229 -219 0
-3 177 -5 393 -3 l393 2 38 39 37 38 -133 60 c-96 44 -134 65 -136 79 -3 18 5
19 175 16 228 -3 235 -4 287 -55 34 -33 46 -53 55 -95 7 -36 11 -280 11 -771
l0 -719 -28 -53 c-23 -45 -37 -59 -84 -83 l-57 -29 -233 12 c-322 15 -593 14
-702 -4 -49 -8 -90 -16 -93 -18 -4 -4 239 -13 708 -27 193 -5 321 -5 348 1 61
14 126 62 158 117 l28 47 3 765 c2 692 1 769 -14 809 -23 60 -70 110 -129 137
-47 22 -62 24 -247 24 -192 0 -198 1 -198 20 0 12 7 31 15 43 11 17 44 108 45
124 0 4 -59 -1 -150 -13z m94 -26 c-10 -13 -31 -37 -46 -53 -27 -30 -27 -33
-18 -90 5 -33 10 -77 10 -97 l0 -37 78 -24 c42 -13 105 -30 140 -37 34 -7 62
-17 62 -22 0 -6 -7 -8 -15 -5 -11 5 -271 -16 -709 -57 l-58 -6 118 91 c66 50
125 94 133 98 18 11 6 165 -15 182 -25 20 -15 24 69 26 55 1 109 10 162 26
105 33 113 33 89 5z"/>
<path d="M1510 1860 c-47 -4 -183 -11 -302 -15 -120 -4 -218 -11 -218 -16 0
-4 17 -12 38 -16 56 -12 577 -5 742 10 133 12 143 14 120 27 -30 16 -251 23
-380 10z"/>
<path d="M1548 1625 c-3 -3 -129 -11 -280 -17 -150 -5 -275 -12 -277 -14 -35
-35 277 -44 654 -19 297 20 276 17 245 35 -18 11 -66 16 -180 18 -85 2 -158 1
-162 -3z"/>
<path d="M1470 1380 c-52 -4 -180 -11 -285 -14 -104 -4 -191 -9 -194 -11 -23
-23 146 -38 359 -32 209 6 525 26 550 34 10 4 3 10 -20 18 -39 15 -251 17
-410 5z"/>
<path d="M1415 1139 c-71 -4 -197 -11 -278 -14 -93 -5 -145 -11 -139 -17 28
-28 425 -33 677 -7 50 5 123 9 163 9 39 0 72 4 72 10 0 29 -199 37 -495 19z"/>
<path d="M1375 898 c-328 -15 -387 -20 -377 -30 5 -5 54 -14 108 -19 101 -11
280 -7 564 12 85 6 172 12 192 13 52 3 57 13 11 25 -43 12 -231 12 -498 -1z"/>
</g>
</svg>
