<?xml version="1.0" standalone="no"?>
<!DOCTYPE svg PUBLIC "-//W3C//DTD SVG 20010904//EN"
 "http://www.w3.org/TR/2001/REC-SVG-20010904/DTD/svg10.dtd">
<svg version="1.0" xmlns="http://www.w3.org/2000/svg"
 width="290.000000pt" height="290.000000pt" viewBox="0 0 290.000000 290.000000"
 preserveAspectRatio="xMidYMid meet">
<metadata>
Created by potrace 1.10, written by Peter Selinger 2001-2011
</metadata>
<g transform="translate(0.000000,290.000000) scale(0.100000,-0.100000)"
fill="#000000" stroke="none">
<path d="M852 2508 c-3 -78 20 -204 47 -263 5 -11 19 -42 31 -68 12 -26 44
-81 71 -122 l48 -75 -44 -63 c-143 -204 -188 -383 -151 -597 19 -111 76 -239
150 -336 25 -34 46 -65 46 -69 0 -3 -15 -30 -34 -58 -40 -62 -104 -184 -111
-212 -3 -11 -12 -45 -21 -75 -19 -67 -32 -260 -16 -260 10 0 22 38 28 85 8 59
24 154 30 171 15 43 69 159 76 162 5 2 8 8 8 13 0 12 71 119 79 119 11 0 108
-161 136 -225 16 -37 31 -100 40 -165 8 -58 19 -120 26 -139 12 -34 12 -34 21
-10 6 13 7 63 4 111 -9 136 -71 305 -159 432 l-34 50 62 91 c72 105 136 259
137 325 0 8 4 39 9 69 14 84 -14 246 -61 347 -36 78 -102 185 -135 218 -15 14
-12 20 25 71 54 73 108 183 119 242 5 26 12 100 16 163 4 63 9 123 12 134 3
12 1 17 -8 14 -15 -5 -35 -88 -44 -183 -3 -38 -8 -82 -11 -96 -7 -35 -65 -146
-109 -209 -19 -27 -35 -54 -35 -60 0 -25 -21 -4 -67 68 -59 93 -87 156 -108
242 -9 36 -23 84 -31 108 -7 23 -13 46 -13 50 5 33 -3 82 -14 82 -9 0 -14 -23
-15 -82z m276 -632 c17 -30 32 -56 32 -58 0 -2 -133 -1 -148 2 -5 1 71 110 77
110 3 0 21 -25 39 -54z m86 -148 c31 -64 46 -126 58 -232 l3 -28 -125 -3 c-69
-2 -143 -4 -165 -4 -22 -1 -47 -6 -55 -11 -13 -9 -13 -11 0 -20 18 -12 228
-12 290 0 25 4 48 6 51 4 8 -5 -17 -164 -32 -200 -7 -16 -13 -31 -14 -34 -8
-33 -125 -230 -136 -230 -10 0 -82 109 -117 178 -18 36 -41 93 -50 126 -20 76
-22 260 -3 336 13 52 67 180 76 180 2 0 14 -4 27 -10 16 -7 41 -6 83 4 33 7
63 14 67 15 4 0 23 -32 42 -71z"/>
<path d="M948 1643 c-17 -21 6 -33 67 -33 63 0 205 21 205 31 0 15 -38 20
-147 18 -85 -1 -115 -5 -125 -16z"/>
<path d="M966 1277 c-16 -12 -16 -14 -2 -26 12 -10 37 -12 94 -8 148 12 196
26 140 41 -44 11 -213 7 -232 -7z"/>
<path d="M1017 1124 c-3 -3 -3 -12 0 -20 10 -26 133 -12 133 16 0 11 -122 15
-133 4z"/>
<path d="M1020 2500 c-79 -4 -95 -8 -98 -22 -5 -26 53 -32 178 -19 61 6 117
14 125 17 27 11 16 24 -20 25 -19 1 -47 2 -62 3 -16 0 -71 -1 -123 -4z"/>
<path d="M967 2349 c-14 -8 -16 -14 -6 -25 14 -17 105 -19 196 -3 63 11 77 21
47 33 -26 10 -218 6 -237 -5z"/>
<path d="M2186 2244 c-31 -30 -12 -94 27 -94 32 0 47 18 47 57 0 47 -43 69
-74 37z"/>
<path d="M1027 2213 c-23 -6 -18 -37 7 -41 25 -5 98 6 116 18 13 9 13 11 0 20
-15 10 -90 12 -123 3z"/>
<path d="M1843 2152 c-19 -12 -31 -55 -22 -79 6 -17 16 -23 37 -23 34 0 50 15
58 58 5 24 2 32 -14 41 -24 13 -42 14 -59 3z"/>
<path d="M2194 2115 c-7 -11 -20 -49 -30 -85 -25 -92 -82 -227 -150 -355 l-59
-110 -8 63 c-6 49 -3 82 12 145 31 133 35 170 20 165 -25 -8 -51 -109 -56
-221 -3 -59 -8 -105 -11 -102 -23 23 -43 135 -49 268 -6 149 -16 184 -29 101
-13 -92 17 -317 52 -386 16 -31 18 -51 5 -46 -5 2 -34 40 -65 86 -30 45 -57
78 -61 72 -10 -17 39 -112 79 -152 41 -43 31 -48 -35 -19 -49 22 -108 79 -133
128 -9 18 -25 68 -35 112 -38 157 -68 204 -58 89 6 -77 54 -195 105 -263 42
-56 144 -114 205 -118 19 -1 41 -7 48 -13 21 -16 67 -32 136 -48 70 -16 175
-8 235 17 54 23 146 94 169 130 42 70 17 63 -75 -22 -41 -38 -88 -77 -104 -85
-39 -20 -128 -30 -186 -22 -48 7 -64 26 -22 26 55 0 254 126 232 147 -3 4 -43
-19 -89 -50 -45 -31 -95 -61 -110 -67 -33 -12 -107 -14 -107 -2 0 4 21 15 48
26 76 30 139 74 197 139 66 73 131 165 122 173 -10 10 -35 -15 -77 -76 -69
-101 -192 -202 -263 -216 -14 -2 -8 8 25 39 68 65 147 191 148 235 0 28 -18 9
-43 -45 -36 -77 -85 -142 -141 -188 -52 -42 -68 -41 -39 2 30 45 138 279 178
387 21 57 35 111 33 130 -3 29 -4 29 -14 11z m-214 -597 c0 -11 -17 -10 -41 3
-28 15 -13 31 16 17 14 -6 25 -15 25 -20z"/>
<path d="M1576 2055 c-18 -19 -15 -73 5 -86 34 -21 89 7 89 45 0 47 -61 73
-94 41z"/>
<path d="M1980 2031 c-18 -35 -12 -70 15 -83 21 -9 28 -8 45 7 29 26 34 54 14
76 -22 25 -60 24 -74 0z"/>
<path d="M2392 1942 c-16 -22 -18 -32 -9 -47 26 -48 71 -49 87 0 23 69 -37
105 -78 47z"/>
<path d="M2213 1926 l-28 -24 21 -29 c27 -37 50 -40 80 -12 28 26 31 51 8 73
-22 23 -48 20 -81 -8z"/>
<path d="M1711 1826 c-12 -18 -21 -40 -21 -48 0 -24 35 -49 56 -42 52 19 68
60 38 102 -22 32 -49 27 -73 -12z"/>
<path d="M2513 1732 c-12 -8 -18 -32 -15 -63 2 -19 46 -41 67 -33 20 8 31 70
15 89 -13 16 -47 20 -67 7z"/>
<path d="M2325 1691 c-8 -27 4 -50 31 -57 32 -8 53 1 63 28 13 36 3 48 -44 48
-34 0 -45 -4 -50 -19z"/>
<path d="M1899 1432 c-38 -66 -181 -413 -219 -532 -9 -30 -32 -116 -50 -190
-18 -74 -38 -141 -43 -148 -8 -10 -17 -6 -43 19 -42 41 -80 127 -94 212 -10
65 -13 374 -3 389 2 5 31 -46 64 -113 33 -66 58 -123 56 -126 -3 -2 -2 -17 3
-32 4 -15 11 -63 15 -107 4 -43 9 -81 11 -84 13 -12 24 32 23 95 0 120 -27
205 -95 293 -18 24 -43 64 -55 89 -20 42 -23 44 -35 28 -42 -57 -46 -391 -6
-515 24 -74 75 -141 122 -160 16 -7 30 -15 30 -19 -1 -29 -57 -182 -92 -248
-43 -81 -47 -117 -8 -72 56 66 128 254 190 497 35 139 99 329 119 357 15 20
94 222 117 299 25 82 21 118 -7 68z"/>
<path d="M2208 1380 c-46 -14 -152 -77 -212 -125 -95 -78 -213 -228 -203 -258
4 -13 65 45 146 141 30 35 81 84 114 109 62 48 167 107 175 98 9 -9 -43 -96
-95 -160 -75 -92 -209 -204 -299 -250 -86 -44 -110 -72 -53 -60 91 19 271 149
373 269 43 50 116 190 116 222 0 9 -26 27 -33 23 -1 0 -14 -4 -29 -9z"/>
<path d="M1017 694 c-15 -15 -6 -34 18 -40 31 -8 127 16 122 30 -4 12 -129 21
-140 10z"/>
<path d="M966 547 c-16 -12 -16 -14 -2 -26 16 -13 128 -10 230 6 36 6 37 7 21
20 -26 18 -224 18 -249 0z"/>
<path d="M961 411 c-43 -8 -51 -28 -15 -37 32 -8 237 2 279 14 52 15 7 26
-115 28 -63 1 -130 -1 -149 -5z"/>
</g>
</svg>
