<?xml version="1.0" standalone="no"?>
<!DOCTYPE svg PUBLIC "-//W3C//DTD SVG 20010904//EN"
 "http://www.w3.org/TR/2001/REC-SVG-20010904/DTD/svg10.dtd">
<svg version="1.0" xmlns="http://www.w3.org/2000/svg"
 width="290.000000pt" height="290.000000pt" viewBox="0 0 290.000000 290.000000"
 preserveAspectRatio="xMidYMid meet">
<metadata>
Created by potrace 1.10, written by Peter Selinger 2001-2011
</metadata>
<g transform="translate(0.000000,290.000000) scale(0.100000,-0.100000)"
fill="#000000" stroke="none">
<path d="M1940 2362 l2 -177 -349 0 -348 0 0 80 0 80 33 -1 c30 -2 32 0 32 30
0 66 -10 70 -166 63 -174 -7 -184 -10 -184 -51 0 -38 11 -56 36 -60 16 -2 20
-14 24 -79 3 -43 3 -78 0 -78 -3 -1 -21 -2 -40 -3 -44 -2 -42 -19 2 -24 18 -2
35 -6 38 -9 3 -2 10 -77 16 -165 l11 -160 -44 -41 c-64 -59 -241 -294 -282
-376 -30 -57 -38 -123 -18 -140 9 -7 22 -14 29 -15 7 -1 25 -10 40 -20 88 -58
332 -90 512 -67 126 17 122 16 208 41 65 19 78 27 89 51 23 56 -29 167 -140
299 -92 109 -107 126 -164 184 -41 43 -56 64 -50 75 4 9 10 88 13 176 l5 160
305 5 c168 3 324 3 348 0 l42 -5 0 -665 0 -665 -312 0 -313 0 3 30 3 30 -175
0 -175 0 2 -35 c2 -30 -1 -35 -18 -33 -25 2 -258 -14 -324 -23 -37 -5 -51 -12
-59 -28 -11 -24 -7 -104 8 -172 6 -25 8 -50 5 -55 -4 -5 252 -9 667 -9 686 0
969 10 997 36 16 15 18 115 2 183 -5 25 -8 48 -5 52 2 4 -44 10 -104 14 -59 3
-111 7 -115 8 -5 1 -9 303 -10 670 l-2 668 28 6 c31 6 37 23 8 23 -11 0 -23 5
-26 10 -4 6 -6 87 -6 180 0 125 -3 170 -12 171 -7 0 -25 2 -40 4 l-28 4 1
-177z m-675 31 c1 -20 -4 -22 -64 -28 -36 -4 -97 -10 -136 -15 -38 -4 -70 -7
-71 -6 -1 0 -4 14 -8 29 l-7 28 48 -6 c26 -3 84 1 128 9 99 17 108 16 110 -11z
m-90 -61 c6 -4 10 -40 10 -80 0 -80 -7 -88 -71 -80 l-29 3 0 75 0 75 35 6 c19
4 37 7 40 8 3 0 10 -3 15 -7z m12 -357 c2 -88 8 -171 13 -185 4 -14 11 -36 14
-50 7 -33 88 -144 164 -226 34 -36 62 -73 62 -82 0 -11 -17 2 -49 36 -46 49
-50 51 -78 41 -17 -5 -41 -21 -54 -35 -31 -33 -51 -30 -88 11 -35 40 -61 44
-111 15 -79 -45 -79 -45 -102 -21 -17 19 -27 22 -61 17 l-40 -7 42 46 c52 57
141 192 141 215 0 9 9 29 20 43 27 34 41 118 39 237 0 52 0 99 0 103 1 5 20 7
42 5 l42 -3 4 -160z m32 -565 c22 0 43 11 71 36 l40 36 46 -38 c26 -20 56 -38
68 -39 14 -1 30 -20 53 -64 19 -34 31 -66 28 -70 -4 -8 -71 -25 -77 -20 -2 1
-13 -3 -25 -9 -35 -19 -215 -42 -326 -42 -95 0 -200 12 -237 27 -22 9 -21 9
-72 17 -43 7 -48 11 -48 35 0 15 23 62 55 111 54 83 56 84 92 81 24 -2 46 -12
60 -27 29 -32 47 -30 112 9 l54 32 37 -37 c27 -28 46 -38 69 -38z m59 -607 c3
-10 -27 -13 -127 -13 -111 0 -131 2 -131 15 0 13 18 15 127 13 90 -2 128 -7
131 -15z m942 -127 c0 -52 2 -100 5 -108 4 -11 -68 -13 -412 -10 -232 1 -592
-4 -808 -12 -214 -7 -391 -13 -391 -12 -1 0 -3 51 -6 111 l-3 110 505 -3 c278
-1 600 2 715 6 116 5 252 10 303 10 l92 2 0 -94z"/>
<path d="M1146 1088 c-18 -82 -15 -158 5 -126 5 7 9 25 9 41 0 41 17 32 25
-13 8 -47 25 -64 24 -23 -2 63 -24 138 -41 141 -11 2 -19 -5 -22 -20z"/>
<path d="M1283 1057 c-48 -53 -66 -94 -37 -83 13 5 14 -1 8 -42 -6 -43 -6 -46
9 -33 9 7 20 29 24 50 9 46 8 41 21 74 21 51 7 70 -25 34z"/>
<path d="M1020 1063 c0 -5 12 -45 27 -90 28 -85 50 -111 40 -48 -6 39 -1 44
19 18 25 -36 25 -3 -2 39 -42 68 -83 107 -84 81z"/>
</g>
</svg>
