<?xml version="1.0" standalone="no"?>
<!DOCTYPE svg PUBLIC "-//W3C//DTD SVG 20010904//EN"
 "http://www.w3.org/TR/2001/REC-SVG-20010904/DTD/svg10.dtd">
<svg version="1.0" xmlns="http://www.w3.org/2000/svg"
 width="290.000000pt" height="290.000000pt" viewBox="0 0 290.000000 290.000000"
 preserveAspectRatio="xMidYMid meet">
<metadata>
Created by potrace 1.10, written by Peter Selinger 2001-2011
</metadata>
<g transform="translate(0.000000,290.000000) scale(0.100000,-0.100000)"
fill="#000000" stroke="none">
<path d="M1019 2241 c-202 -6 -229 -12 -229 -50 0 -9 -7 -34 -14 -56 -8 -22
-15 -80 -17 -130 -4 -128 11 -627 21 -708 8 -67 8 -69 -19 -95 -35 -33 -201
-226 -300 -346 -84 -103 -88 -127 -26 -138 129 -24 271 -28 1097 -28 722 0
899 3 947 14 33 8 64 17 70 21 36 21 -15 90 -252 345 l-126 135 -1 332 c0 323
-13 573 -31 603 -10 18 -9 39 -11 -210 0 -107 2 -251 6 -320 17 -342 17 -350
4 -354 -7 -3 -272 -8 -588 -12 -316 -4 -611 -8 -655 -10 l-80 -2 0 242 c0 132
-4 345 -9 472 -8 194 -7 232 5 240 8 4 259 7 559 6 300 -1 588 2 640 7 89 8
96 8 118 -12 16 -15 22 -17 22 -6 0 26 -17 40 -56 50 -48 11 -810 19 -1075 10z
m1122 -1133 c36 -46 75 -98 88 -116 46 -65 85 -62 -777 -60 -709 3 -776 4
-785 20 -9 13 3 33 64 104 41 48 79 95 86 103 13 18 230 25 903 29 l356 2 65
-82z m-467 -289 c58 -91 59 -91 -220 -90 -125 1 -232 5 -237 10 -11 11 8 83
31 110 18 22 6 21 312 29 l75 2 39 -61z"/>
<path d="M1090 2130 c-58 -4 -121 -9 -140 -10 l-35 -2 34 -8 c18 -4 239 -4
490 1 251 4 484 8 518 9 l62 0 4 -372 c3 -205 6 -384 8 -398 l4 -25 -230 -6
c-126 -3 -380 -10 -562 -14 l-333 -8 0 399 c0 369 -7 478 -24 394 -12 -63 4
-794 19 -808 2 -3 264 1 581 9 l577 13 -6 295 c-4 163 -10 351 -14 419 l-6
122 -421 -2 c-232 -1 -468 -5 -526 -8z"/>
<path d="M1320 1847 c0 -43 179 -268 188 -236 10 39 11 40 52 14 56 -35 120
-59 130 -49 4 5 15 26 23 46 l16 37 -70 47 c-38 26 -69 49 -69 51 0 2 10 17
22 33 12 16 19 32 16 35 -2 3 -54 10 -114 15 -60 5 -128 12 -151 15 -30 3 -43
1 -43 -8z"/>
</g>
</svg>
