<?xml version="1.0" standalone="no"?>
<!DOCTYPE svg PUBLIC "-//W3C//DTD SVG 20010904//EN"
 "http://www.w3.org/TR/2001/REC-SVG-20010904/DTD/svg10.dtd">
<svg version="1.0" xmlns="http://www.w3.org/2000/svg"
 width="290.000000pt" height="290.000000pt" viewBox="0 0 290.000000 290.000000"
 preserveAspectRatio="xMidYMid meet">
<metadata>
Created by potrace 1.10, written by Peter Selinger 2001-2011
</metadata>
<g transform="translate(0.000000,290.000000) scale(0.050000,-0.050000)"
fill="#000000" stroke="none">
<path d="M3410 4429 c-451 -99 -794 -411 -825 -750 l-10 -113 -234 10 c-463
19 -834 -118 -1078 -399 -230 -265 -221 -704 21 -950 135 -138 135 -260 -2
-395 -74 -74 -182 -218 -182 -244 0 -37 222 -108 341 -108 223 0 459 162 459
315 0 39 7 46 35 35 19 -8 130 -19 246 -25 625 -31 1151 298 1184 740 13 172
-10 172 -67 0 -140 -422 -555 -595 -1450 -604 -77 -1 -83 -5 -105 -80 -25 -83
-117 -175 -190 -190 -23 -4 -77 -13 -119 -19 l-77 -10 61 62 c196 200 196 394
1 626 -258 307 -184 676 182 910 543 349 1510 160 1686 -330 79 -218 78 -216
98 -181 12 22 26 27 42 14 81 -65 386 -80 458 -23 67 52 67 52 106 -30 139
-292 492 -440 714 -300 117 74 117 70 -4 164 -200 154 -223 314 -66 455 146
131 179 195 204 390 30 244 16 237 -86 -40 -32 -86 -195 -272 -307 -349 -87
-60 -77 -305 17 -437 113 -157 -112 -47 -305 150 l-152 155 -228 -18 c-125
-10 -233 -12 -239 -4 -6 8 -29 55 -49 104 -122 289 -489 603 -666 568 l-64
-13 0 90 c0 807 1778 961 2025 175 60 -188 133 -216 105 -40 -81 496 -810 836
-1480 689z"/>
</g>
</svg>
