<?xml version="1.0" standalone="no"?>
<!DOCTYPE svg PUBLIC "-//W3C//DTD SVG 20010904//EN"
 "http://www.w3.org/TR/2001/REC-SVG-20010904/DTD/svg10.dtd">
<svg version="1.0" xmlns="http://www.w3.org/2000/svg"
 width="290.000000pt" height="290.000000pt" viewBox="0 0 290.000000 290.000000"
 preserveAspectRatio="xMidYMid meet">
<metadata>
Created by potrace 1.10, written by Peter Selinger 2001-2011
</metadata>
<g transform="translate(0.000000,290.000000) scale(0.100000,-0.100000)"
fill="#000000" stroke="none">
<path d="M1862 2423 c-18 -46 -25 -103 -13 -103 15 0 51 74 51 105 0 34 -25
32 -38 -2z"/>
<path d="M1305 2389 c-214 -29 -434 -149 -573 -312 -68 -80 -174 -265 -161
-280 2 -2 -1 -10 -7 -18 -27 -32 -49 -173 -48 -304 1 -199 47 -350 157 -517
127 -191 366 -342 610 -384 175 -30 414 4 567 81 252 127 433 354 491 615 79
359 -54 725 -334 917 -40 28 -96 63 -123 77 -27 15 -69 39 -94 55 -25 15 -59
31 -75 36 -17 4 -34 10 -40 11 -75 25 -270 37 -370 23z m280 -32 c33 -7 60
-17 60 -22 -1 -6 -27 -13 -60 -17 -69 -9 -149 -30 -221 -60 l-50 -20 -87 33
c-48 19 -87 37 -87 40 0 8 103 38 165 48 76 13 213 12 280 -2z m-372 -122 c20
-8 37 -17 37 -19 0 -2 -35 -24 -77 -49 -43 -25 -104 -69 -136 -97 -51 -46 -61
-51 -80 -42 -12 6 -49 22 -82 35 -33 13 -60 29 -60 37 0 21 120 114 210 163
l80 43 35 -28 c19 -15 52 -34 73 -43z m501 47 c3 -5 -14 -19 -37 -32 -23 -13
-68 -41 -101 -62 l-58 -39 -42 19 c-22 11 -50 23 -60 26 -31 11 -7 21 103 45
57 13 120 29 140 36 44 17 49 17 55 7z m46 -50 c-16 -20 -41 -63 -55 -94 -15
-32 -28 -58 -30 -58 -1 0 -28 12 -59 26 l-57 26 83 55 c46 31 94 64 107 74 37
29 44 12 11 -29z m48 -77 c-1 -112 -8 -139 -31 -116 -6 6 -19 11 -28 11 -28 0
-30 14 -9 55 10 20 29 66 42 101 13 35 24 64 25 64 2 0 2 -52 1 -115z m68 35
c16 -30 55 -94 87 -143 32 -48 56 -91 53 -96 -4 -6 -85 26 -146 58 -10 5 -17
31 -21 78 -4 38 -10 94 -14 124 -8 63 -1 59 41 -21z m95 -3 c112 -84 181 -160
243 -271 46 -81 51 -114 12 -77 -12 11 -52 34 -89 51 -37 16 -67 35 -67 42 0
14 -125 214 -176 281 -20 26 -32 47 -27 47 4 0 51 -33 104 -73z m-574 -27 c35
-16 69 -30 74 -30 5 0 -43 -52 -107 -115 -77 -78 -120 -113 -127 -107 -7 5
-54 26 -105 47 -51 21 -95 41 -97 45 -10 15 145 131 225 168 58 27 60 27 137
-8z m198 -89 c62 -28 76 -45 56 -66 -5 -6 -18 -35 -29 -65 -11 -30 -31 -81
-45 -113 l-26 -57 -38 19 c-38 19 -162 73 -195 84 -10 4 -18 10 -18 15 0 12
209 212 221 212 5 0 39 -13 74 -29z m-780 -11 c10 -11 41 -34 69 -52 28 -17
52 -33 54 -34 2 -1 -15 -26 -37 -55 -22 -29 -54 -81 -72 -116 -33 -64 -38 -69
-55 -54 -5 4 -42 21 -81 36 -40 16 -73 31 -73 35 0 30 150 260 170 260 4 0 15
-9 25 -20z m950 -62 c47 -18 48 -25 61 -225 6 -104 5 -123 -8 -123 -7 0 -18 4
-23 8 -6 5 -54 28 -107 52 -54 23 -98 44 -98 46 0 1 9 19 20 41 10 21 31 67
46 103 51 124 56 133 62 124 4 -6 25 -17 47 -26z m-641 -107 c103 -38 101 -34
61 -89 -18 -26 -48 -74 -64 -106 -17 -31 -33 -61 -36 -66 -3 -5 -25 -1 -48 10
-58 25 -104 45 -154 65 -24 10 -43 19 -43 21 0 7 36 80 45 91 6 7 30 41 54 76
l44 64 41 -22 c23 -12 67 -32 100 -44z m877 6 c31 -14 59 -29 62 -34 20 -32
45 -170 46 -250 1 -51 0 -93 -1 -93 -7 0 -167 69 -206 89 l-40 21 -1 157 c0
86 2 160 5 165 3 4 21 -1 42 -12 20 -10 62 -30 93 -43z m204 -87 c39 -18 72
-34 74 -36 2 -2 12 -38 23 -81 20 -84 34 -242 24 -269 -6 -15 -8 -15 -26 1
-11 10 -48 32 -82 49 l-63 31 -6 110 c-6 119 -16 183 -31 202 -10 13 -2 36 10
29 4 -2 39 -18 77 -36z m-897 14 c20 -9 69 -27 107 -41 39 -14 82 -31 96 -39
l26 -13 -41 -83 c-23 -46 -50 -104 -60 -130 -10 -27 -21 -48 -23 -48 -2 0 -38
17 -81 38 -42 21 -107 51 -144 67 -38 15 -68 29 -68 31 0 11 140 234 147 234
2 0 20 -7 41 -16z m-578 -107 c43 -23 54 -41 39 -62 -11 -15 -39 -159 -39
-199 0 -38 -14 -54 -34 -37 -7 6 -42 22 -77 35 l-64 24 3 73 c2 71 20 167 41
222 l11 28 37 -30 c21 -17 58 -41 83 -54z m993 -71 c53 -25 97 -51 97 -58 0
-49 -59 -235 -84 -265 -1 -2 -57 24 -125 57 -67 33 -125 60 -129 60 -4 0 -13
4 -20 8 -9 7 1 35 41 118 30 60 57 119 61 132 7 21 9 21 34 7 15 -8 71 -35
125 -59z m-766 -27 l112 -42 -18 -36 c-24 -48 -48 -124 -59 -186 -5 -27 -13
-49 -18 -48 -23 5 -196 81 -205 90 -9 9 -2 63 27 201 13 60 19 73 32 69 10 -3
67 -24 129 -48z m1132 -149 c16 -8 18 -15 11 -37 -5 -16 -16 -56 -25 -90 -18
-72 -53 -156 -63 -151 -27 13 -146 69 -188 88 -48 22 -51 25 -39 44 24 36 65
173 65 214 0 21 3 41 6 44 4 5 111 -46 233 -112z m-969 91 c0 -5 10 -11 23
-15 12 -3 75 -30 139 -60 l117 -55 -30 -68 c-68 -150 -89 -193 -93 -193 -2 0
-26 11 -53 24 -26 13 -85 40 -131 61 -57 26 -79 42 -72 49 5 5 10 18 10 29 0
10 14 62 31 115 17 53 33 103 35 110 4 14 24 17 24 3z m-450 -181 l57 -29 6
-73 c7 -84 33 -193 54 -225 24 -37 6 -43 -47 -17 -27 13 -57 24 -66 24 -20 0
-71 112 -94 209 -24 105 -37 180 -32 186 3 2 18 -7 35 -21 16 -14 56 -38 87
-54z m1515 44 c14 -9 50 -24 80 -33 31 -10 56 -22 56 -27 0 -23 -36 -154 -54
-194 -10 -25 -23 -55 -28 -68 -9 -22 -9 -22 -28 -5 -11 10 -49 33 -86 52 -36
19 -64 37 -62 40 19 35 42 98 58 158 26 103 25 102 64 77z m-575 -89 c58 -26
106 -48 107 -49 5 -5 -56 -110 -96 -166 -21 -30 -45 -54 -52 -53 -31 4 -224
81 -224 89 0 5 14 45 31 89 17 44 39 101 48 127 l17 47 32 -19 c18 -11 79 -40
137 -65z m-685 -61 c49 -19 50 -21 45 -54 -3 -19 -5 -90 -4 -158 0 -67 -2
-121 -5 -119 -3 1 -31 14 -62 29 -52 24 -58 30 -77 79 -11 30 -25 81 -32 114
-6 33 -16 81 -22 107 -5 26 -7 51 -4 57 4 6 27 1 59 -13 28 -12 75 -31 102
-42z m945 -59 c25 -10 64 -29 87 -42 l42 -24 -40 -57 c-21 -31 -57 -77 -79
-102 -34 -39 -42 -43 -58 -33 -10 6 -59 28 -108 48 -49 20 -90 38 -92 40 -2 2
15 27 37 56 23 30 55 80 71 111 l31 57 32 -17 c18 -10 52 -26 77 -37z m-784
-4 c32 -15 87 -41 121 -56 63 -28 63 -28 48 -54 -13 -24 -43 -90 -86 -190 -12
-26 -24 -41 -32 -38 -6 3 -41 17 -76 33 l-63 28 3 145 c2 80 5 149 7 154 5 11
15 9 78 -22z m1015 -111 c35 -16 75 -31 89 -34 15 -2 24 -9 22 -17 -5 -20
-105 -148 -150 -192 l-39 -38 -38 35 c-21 19 -53 42 -71 51 -19 9 -34 17 -34
19 0 1 18 22 40 46 22 24 57 69 77 101 21 33 39 59 39 59 1 0 30 -13 65 -30z
m-594 -70 c46 0 -19 -83 -139 -176 -56 -44 -81 -53 -93 -34 -3 6 -17 10 -29
10 -32 0 -51 23 -33 39 16 13 97 192 97 213 0 27 11 26 98 -13 48 -21 92 -39
99 -39z m-736 -52 c43 -23 66 -42 79 -67 10 -20 39 -64 64 -98 32 -44 41 -63
30 -63 -20 0 -256 238 -249 250 8 14 7 14 76 -22z m921 -29 c78 -34 95 -45 86
-56 -17 -21 -148 -100 -222 -133 l-68 -31 -46 21 c-26 12 -57 26 -71 31 -13 5
-22 11 -20 13 2 2 31 24 64 49 33 24 83 69 110 99 28 31 55 54 60 52 6 -1 54
-22 107 -45z m-697 -124 c13 -39 20 -73 17 -77 -4 -4 -28 21 -53 55 -90 124
-93 136 -28 109 37 -16 42 -23 64 -87z m927 24 l82 -42 -34 -29 c-40 -34 -240
-133 -286 -143 -25 -5 -41 1 -83 29 -29 18 -51 38 -49 42 2 5 33 23 70 41 73
35 175 101 197 127 7 9 15 16 17 16 2 0 41 -19 86 -41z m-852 6 c5 -1 52 -25
58 -30 1 -1 -12 -32 -29 -69 -17 -37 -35 -64 -39 -59 -11 11 -49 166 -43 176
2 4 14 2 26 -5 12 -7 24 -13 27 -13z m169 -81 c-3 -13 -119 -76 -119 -64 0 5
15 29 33 53 30 41 33 43 60 32 16 -7 27 -16 26 -21z m113 -36 c56 -20 58 -22
38 -33 -12 -7 -43 -12 -69 -13 -25 -1 -67 -4 -93 -8 -74 -9 -77 5 -7 41 35 17
66 33 68 33 2 1 31 -8 63 -20z m160 -67 c24 -10 55 -24 71 -30 68 -27 14 -39
-158 -35 -118 2 -238 20 -229 35 3 5 26 9 52 10 26 0 83 9 127 18 44 10 83 19
87 20 4 0 27 -8 50 -18z"/>
<path d="M1018 623 c-25 -29 -37 -57 -62 -150 -13 -48 -27 -96 -32 -107 -7
-18 3 -18 367 -10 206 5 445 9 532 9 86 0 157 3 157 7 0 4 -26 15 -57 25 -97
29 -488 19 -853 -22 -118 -13 -137 -12 -122 8 13 18 95 247 90 252 -3 3 -12
-3 -20 -12z"/>
</g>
</svg>
