<?xml version="1.0" standalone="no"?>
<!DOCTYPE svg PUBLIC "-//W3C//DTD SVG 20010904//EN"
 "http://www.w3.org/TR/2001/REC-SVG-20010904/DTD/svg10.dtd">
<svg version="1.0" xmlns="http://www.w3.org/2000/svg"
 width="290.000000pt" height="290.000000pt" viewBox="0 0 290.000000 290.000000"
 preserveAspectRatio="xMidYMid meet">
<metadata>
Created by potrace 1.10, written by Peter Selinger 2001-2011
</metadata>
<g transform="translate(0.000000,290.000000) scale(0.100000,-0.100000)"
fill="#000000" stroke="none">
<path d="M1812 2409 c-22 -8 -24 -14 -20 -75 l3 -66 -35 -14 c-19 -8 -43 -23
-53 -32 -74 -67 -76 -215 -4 -283 l25 -24 -54 -165 c-50 -150 -81 -254 -88
-288 -4 -23 -21 -30 -85 -36 -103 -9 -102 -36 2 -51 26 -4 47 -13 47 -19 0 -7
-11 -45 -24 -84 -14 -40 -23 -72 -21 -72 3 0 0 -12 -6 -27 -6 -16 -13 -37 -15
-48 -7 -26 -10 -37 -17 -55 -3 -8 -22 -71 -42 -140 -35 -123 -45 -165 -49
-225 -1 -16 -10 -54 -20 -82 -21 -62 -15 -98 14 -83 11 6 22 26 26 45 3 19 11
35 18 35 6 0 39 28 73 62 47 48 65 74 73 108 6 25 12 52 15 60 12 46 60 206
80 272 14 43 27 88 29 100 3 13 13 51 22 86 l16 62 39 0 c22 0 42 1 47 3 4 1
8 -13 10 -31 4 -41 23 -37 34 7 9 32 9 32 66 29 l57 -3 23 -75 c13 -41 27 -84
32 -95 8 -21 88 -293 119 -405 7 -25 14 -53 17 -62 3 -9 34 -40 69 -68 42 -32
73 -66 88 -97 23 -45 25 -46 36 -25 10 18 9 29 -3 54 -12 23 -13 34 -5 44 10
12 -35 179 -111 414 -10 30 -35 111 -55 180 -21 69 -42 130 -46 136 -14 18 1
24 58 24 85 0 61 29 -28 34 -36 2 -53 9 -54 24 -1 4 -34 107 -74 230 l-74 223
22 15 c67 48 83 196 28 268 -16 20 -45 44 -65 54 -40 19 -49 40 -51 125 -1 46
-1 47 -33 46 -18 0 -44 -4 -56 -10z m52 -84 c8 -43 0 -61 -20 -44 -8 6 -14 26
-14 44 0 57 24 58 34 0z m57 -117 c47 -32 71 -82 66 -138 -4 -36 -13 -51 -46
-82 -35 -33 -47 -38 -87 -38 -139 0 -195 160 -87 251 41 34 108 37 154 7z
m-118 -324 c31 -7 33 -12 11 -42 -18 -26 -71 -175 -84 -237 -5 -22 -11 -51
-14 -65 -4 -14 -8 -40 -11 -58 -2 -18 -7 -37 -10 -42 -7 -11 -58 -14 -67 -4
-4 3 3 36 13 72 16 54 63 239 94 370 4 16 11 22 23 18 9 -3 29 -8 45 -12z
m151 -1 c3 -10 28 -106 56 -212 28 -107 56 -201 62 -208 13 -16 -9 -26 -47
-21 -25 3 -30 12 -61 108 -19 58 -37 112 -40 120 -4 8 -8 20 -10 25 -1 6 -14
44 -28 85 -32 92 -32 100 -3 100 12 0 29 5 37 10 21 14 28 12 34 -7z m-104
-120 c0 -31 58 -223 72 -240 6 -7 8 -13 4 -13 -4 0 1 -11 10 -25 22 -34 14
-47 -28 -52 -39 -4 -50 5 -54 46 -7 58 -44 50 -47 -10 -2 -31 -5 -34 -32 -34
-35 0 -35 -2 -5 115 12 47 24 94 27 105 2 11 5 25 7 30 4 15 15 62 21 90 7 32
25 23 25 -12z m260 -445 c12 -40 25 -84 30 -98 5 -14 30 -97 55 -185 25 -88
49 -167 52 -175 3 -8 8 -26 10 -40 2 -14 18 -48 34 -76 16 -28 29 -54 29 -58
0 -27 -97 44 -111 82 -8 20 -31 96 -93 307 -2 6 -5 17 -8 25 -6 15 -49 160
-63 210 -4 14 -12 31 -17 37 -17 21 -1 43 31 43 29 0 31 -3 51 -72z m-437 37
c-1 -5 -18 -66 -38 -135 -20 -69 -38 -132 -40 -140 -3 -8 -24 -81 -48 -162
-38 -128 -49 -154 -86 -198 -47 -56 -68 -58 -45 -5 12 29 27 81 49 165 2 8 22
78 45 155 23 77 43 151 46 165 3 14 8 34 11 45 4 11 8 27 10 35 5 22 9 32 21
63 10 24 17 28 44 25 18 -2 32 -7 31 -13z"/>
<path d="M1223 2210 l7 -62 -38 8 c-42 10 -212 11 -257 2 -16 -3 -55 -14 -85
-23 -223 -69 -418 -279 -454 -490 -7 -40 -9 -221 -3 -232 3 -4 8 -26 11 -48 3
-22 26 -81 50 -131 71 -147 187 -260 308 -299 29 -10 56 -20 60 -24 4 -3 3
-33 -1 -65 -8 -55 -6 -61 15 -81 30 -27 79 -42 196 -58 52 -8 99 -16 104 -20
14 -8 149 424 219 703 9 35 86 322 140 520 23 86 47 168 76 258 6 19 9 35 7
38 -8 7 -124 28 -218 39 -59 7 -90 12 -119 21 l-24 7 6 -63z m147 -15 c14 -2
53 -5 88 -6 34 -1 64 -5 67 -8 2 -4 -5 -34 -16 -66 -11 -33 -21 -68 -24 -80
-2 -11 -23 -83 -45 -160 -23 -77 -43 -148 -46 -157 -17 -74 -85 -324 -99 -368
-8 -25 -16 -56 -19 -70 -5 -25 -12 -55 -21 -87 -52 -195 -127 -467 -129 -470
-1 -1 -44 12 -96 28 -52 17 -119 33 -148 36 -44 5 -52 9 -46 22 4 9 9 41 11
71 l3 55 -52 25 c-34 15 -84 55 -139 110 -68 68 -95 103 -128 170 -23 47 -44
94 -46 105 -3 11 -10 41 -16 68 -10 45 -8 153 4 207 3 14 7 32 9 41 2 9 21 51
42 94 109 221 356 352 609 322 54 -6 74 -4 98 9 31 16 31 17 25 71 l-6 55 47
-7 c27 -4 59 -9 73 -10z"/>
<path d="M981 1878 c-66 -10 -136 -47 -191 -102 -35 -34 -72 -86 -75 -106 0
-3 -7 -16 -15 -30 -17 -28 -21 -221 -6 -255 5 -11 10 -25 11 -31 6 -24 55 -91
91 -124 35 -32 45 -35 110 -38 l71 -4 11 43 c19 72 52 242 52 265 0 12 7 24
14 27 33 13 62 98 71 202 3 33 8 79 11 102 3 23 1 44 -4 47 -17 10 -97 12
-151 4z m119 -42 c0 -2 -7 -21 -16 -42 -26 -61 -66 -233 -59 -254 4 -12 -3
-27 -19 -43 -31 -31 -47 -89 -50 -181 -1 -43 -7 -71 -14 -74 -17 -5 -77 34
-108 71 -94 112 -88 288 13 398 32 35 119 87 155 93 7 1 27 9 43 19 28 15 55
22 55 13z"/>
</g>
</svg>
