<?xml version="1.0" standalone="no"?>
<!DOCTYPE svg PUBLIC "-//W3C//DTD SVG 20010904//EN"
 "http://www.w3.org/TR/2001/REC-SVG-20010904/DTD/svg10.dtd">
<svg version="1.0" xmlns="http://www.w3.org/2000/svg"
 width="290.000000pt" height="290.000000pt" viewBox="0 0 290.000000 290.000000"
 preserveAspectRatio="xMidYMid meet">
<metadata>
Created by potrace 1.10, written by Peter Selinger 2001-2011
</metadata>
<g transform="translate(0.000000,290.000000) scale(0.100000,-0.100000)"
fill="#000000" stroke="none">
<path d="M915 2281 c-75 -5 -95 -9 -80 -16 19 -9 335 -11 973 -7 223 2 272 4
272 16 0 11 -87 13 -532 13 -293 0 -578 -3 -633 -6z"/>
<path d="M770 2202 c-14 -1 -51 -10 -84 -20 -194 -55 -269 -301 -148 -482 26
-38 55 -65 97 -90 58 -34 63 -35 161 -35 90 0 106 3 133 22 16 13 32 19 35 15
2 -4 1 -39 -4 -77 -12 -91 -12 -480 0 -570 5 -39 5 -74 0 -79 -8 -8 -39 -11
-137 -15 -29 -1 -33 -5 -43 -41 -9 -32 -7 -60 6 -131 l16 -90 327 2 c179 2
400 6 491 10 91 4 254 9 363 10 l199 4 -4 95 c-2 52 -10 109 -18 125 -7 17
-12 35 -11 42 1 9 -26 13 -96 15 l-97 3 4 55 c9 106 3 565 -7 602 -6 20 -9 39
-6 41 2 3 20 -5 38 -17 63 -43 198 -41 292 5 102 49 169 181 161 312 -10 145
-102 252 -247 285 -25 6 -1371 10 -1421 4z m1432 -84 c50 -15 126 -81 146
-128 9 -19 17 -66 18 -103 2 -57 -2 -77 -22 -115 -54 -101 -123 -144 -233
-144 -82 -1 -119 17 -163 78 -39 54 -47 131 -23 219 11 42 22 65 32 65 7 0 32
9 55 21 56 28 124 22 173 -15 91 -70 94 -154 7 -210 -62 -41 -87 -43 -122 -8
-34 34 -40 83 -15 116 14 18 16 18 58 2 52 -20 57 -20 57 -2 0 25 -59 66 -95
66 -50 0 -64 -8 -85 -51 -52 -101 16 -229 123 -229 77 0 163 55 198 126 77
160 -112 339 -282 266 -50 -22 -120 -97 -144 -157 -31 -73 -17 -187 30 -251
19 -25 21 -32 9 -40 -25 -17 -37 -175 -32 -433 3 -135 7 -253 9 -261 3 -12 -9
-16 -54 -20 -32 -3 -60 -3 -62 0 -1 3 2 84 7 180 14 269 -2 854 -25 876 -17
18 -29 -20 -35 -112 -7 -122 -9 -643 -2 -818 l5 -128 -74 0 -74 0 4 153 c6
213 -1 828 -10 869 -3 18 -12 35 -18 37 -29 10 -34 -68 -33 -529 1 -255 2
-478 3 -497 l2 -33 -67 0 -68 0 -4 478 c-2 264 -6 493 -8 509 -3 17 -6 40 -6
53 -2 19 -32 34 -32 15 0 -5 -5 -39 -11 -78 -12 -84 -15 -779 -3 -885 5 -41 8
-79 9 -84 0 -6 -34 -11 -75 -13 l-75 -3 3 428 c5 535 -11 725 -49 615 -11 -30
-14 -134 -14 -483 0 -245 2 -472 5 -504 l5 -59 -50 -3 c-27 -2 -59 -4 -70 -6
-14 -2 -19 2 -15 12 8 26 12 521 5 618 -4 54 -12 98 -20 105 -10 9 -8 19 10
47 55 87 53 238 -5 298 -13 15 -29 36 -35 47 -31 59 -136 89 -213 60 -128 -48
-185 -181 -123 -293 20 -36 88 -80 146 -93 98 -22 172 26 183 117 6 56 -2 85
-34 123 -39 47 -102 42 -161 -12 -41 -37 -21 -50 33 -22 39 20 57 19 79 -5 22
-24 22 -73 0 -106 -22 -34 -64 -35 -127 -3 -47 24 -68 54 -68 100 0 102 133
174 228 125 17 -9 37 -16 45 -16 20 0 57 -94 57 -145 0 -82 -46 -172 -103
-202 -45 -23 -161 -22 -207 2 -115 59 -169 161 -149 284 13 84 85 167 165 191
47 14 1439 12 1486 -2z m-92 -1311 c0 -44 6 -71 20 -95 15 -24 17 -34 8 -36
-7 -3 -170 -7 -363 -11 -192 -4 -484 -12 -649 -18 -198 -8 -300 -9 -302 -2 -1
6 -4 56 -6 113 -3 90 -2 102 12 95 30 -15 452 -14 790 1 414 20 473 22 483 18
4 -2 7 -31 7 -65z"/>
<path d="M1143 2063 c-46 -2 -83 -8 -83 -13 0 -14 777 -13 785 0 3 6 5 10 3
11 -13 3 -641 5 -705 2z"/>
<path d="M723 575 c2 -6 47 -10 115 -10 1028 2 1392 6 1392 16 0 8 -215 10
-755 8 -517 -2 -754 -6 -752 -14z"/>
</g>
</svg>
